<?xml version="1.0" encoding="utf-8"?>
<!-- Generator: Adobe Illustrator 17.0.0, SVG Export Plug-In . SVG Version: 6.00 Build 0)  -->
<!DOCTYPE svg PUBLIC "-//W3C//DTD SVG 1.1//EN" "http://www.w3.org/Graphics/SVG/1.1/DTD/svg11.dtd">
<svg version="1.1" id="Layer_1" xmlns="http://www.w3.org/2000/svg" xmlns:xlink="http://www.w3.org/1999/xlink" x="0px" y="0px"
	 width="421.703px" height="476.537px" viewBox="0 0 421.703 476.537" enable-background="new 0 0 421.703 476.537"
	 xml:space="preserve">
<g>
	<g>
		<path fill="#FFFFFF" d="M167.201,30.332c1.788-0.362,3.567-0.724,5.342-1.082c-0.04,0.007-0.075,0.015-0.115,0.022
			C170.677,29.564,168.932,29.925,167.201,30.332z"/>
		<path fill="#FFFFFF" d="M174.802,28.796c-0.752,0.15-1.505,0.302-2.258,0.454C173.345,29.114,174.09,28.96,174.802,28.796z"/>
		<path fill="#FFFFFF" d="M159.641,31.824c-5.734-8.35-11.61-17.054-17.649-25.644c-3.566-5.072-10.698-7.334-16.698-5.606
			c-4.506,1.298-8.264,6.469-8.068,12.638c0.101,3.171,1.375,6.624,3.07,9.362c4.373,7.066,9.274,13.805,14.137,20.928
			c-1.368,0.79-2.712,1.599-4.045,2.418c4.986-3.023,20.201-11.681,36.813-15.587C164.699,30.839,162.182,31.343,159.641,31.824z"/>
	</g>
	<g>
		<path fill="#FFFFFF" d="M225.949,388.994c-10.365,0-19.943,0-30.044,0c-0.1,2.049-0.269,3.932-0.272,5.814
			c-0.023,14.798,0.05,29.596-0.03,44.393c-0.111,20.435-17.041,37.517-36.886,37.336c-19.621-0.179-36.162-17.257-36.229-37.48
			c-0.049-14.619-0.01-29.239-0.011-43.858c0-1.923,0-3.845,0-6.409c-3.438,0-6.412-0.05-9.383,0.008
			c-21.013,0.411-39.557-18.673-39.34-39.445c0.66-63.285,0.239-126.581,0.239-189.872c0-1.916,0-3.832,0-5.996
			c91.251,0,181.928,0,273.267,0c0.095,2.105,0.266,4.151,0.267,6.198c0.014,62.935-0.378,125.874,0.207,188.803
			c0.227,24.442-21.039,41.51-40.655,40.326c-2.472-0.149-4.961-0.02-8.224-0.02c0,2.205,0,4.087,0,5.968
			c-0.001,15.154,0.051,30.309-0.015,45.463c-0.085,19.518-17.252,36.451-36.717,36.317c-19.239-0.132-36.1-17.032-36.162-36.337
			C225.906,423.3,225.949,406.397,225.949,388.994z M248.895,370.732c-6.826,13.475-4.352,27.364-4.669,40.969
			c-0.22,9.444-0.072,18.898-0.034,28.347c0.048,11.868,6.403,18.236,18.139,18.256c11.818,0.02,18.7-6.311,18.176-18.101
			c-1.026-23.116,3.595-46.533-3.8-69.27c0.612-0.155,0.955-0.317,1.298-0.318c9.627-0.035,19.254-0.051,28.881-0.074
			c16.213-0.039,22.289-6.081,22.292-22.25c0.01-56.697,0.004-113.393,0.004-170.09c0-2.072,0-4.145,0-6.305
			c-79.37,0-158.031,0-236.799,0c-0.067,1.3-0.151,2.178-0.151,3.055c-0.005,59.015-0.034,118.029,0.024,177.044
			c0.011,11.257,6.699,17.934,18.481,18.451c6.94,0.305,13.904,0.085,20.857,0.095c4.325,0.006,8.65,0.001,13.098,0.001
			c-1.439,6.247-3.596,11.565-3.73,16.935c-0.448,17.818-0.317,35.656-0.113,53.483c0.128,11.139,6.734,17.25,18.007,17.341
			c11.557,0.093,18.173-6.043,18.386-17.463c0.196-10.516,0.082-21.038,0.048-31.557c-0.04-12.597,1.177-25.324-3.705-37.45
			c-0.089-0.222,0.223-0.606,0.424-1.099C198.519,370.732,223.091,370.732,248.895,370.732z"/>
		<path fill="#2bb1a8" d="M0.031,237.008c0.005-18.887-0.08-37.775,0.034-56.662c0.079-13.127,6.146-23.232,16.71-30.601
			c10.158-7.086,22.357-7.046,32.526-0.022c10.835,7.485,16.771,17.965,16.837,31.15c0.188,37.596,0.215,75.194-0.006,112.789
			c-0.079,13.414-6.307,23.976-17.527,31.272c-10.253,6.667-20.911,6.686-31.139-0.004C6.305,317.63,0.12,307.225,0.05,293.671
			C-0.047,274.784,0.026,255.896,0.031,237.008z M18.273,237.457c0,13.902-0.016,27.804,0.007,41.705
			c0.01,6.237-0.236,12.499,0.236,18.704c0.635,8.346,6.396,13.584,14.295,13.722c7.984,0.139,13.482-4.814,14.626-13.307
			c0.308-2.288,0.435-4.616,0.437-6.926c0.026-36.002,0.037-72.004-0.015-108.006c-0.005-3.193-0.133-6.458-0.795-9.564
			c-1.442-6.773-6.472-10.726-13.292-10.944c-7.495-0.239-12.46,3.035-14.436,10.055c-0.804,2.858-1.004,5.961-1.018,8.955
			C18.231,200.385,18.275,218.921,18.273,237.457z"/>
		<path fill="#2bb1a8" d="M421.646,237.443c-0.001,18.536,0.158,37.074-0.052,55.608c-0.162,14.306-6.654,25.324-18.88,32.667
			c-9.317,5.596-19.051,5.649-28.407,0.07c-11.846-7.064-18.764-17.544-18.845-31.505c-0.22-38.14-0.193-76.283-0.029-114.424
			c0.088-20.371,18.267-37.403,36.924-35.064c15.599,1.955,28.947,18.351,29.284,35.971c0.007,0.356,0.004,0.713,0.004,1.069
			C421.647,200.37,421.647,218.907,421.646,237.443z M373.617,237.434c0,18.544-0.035,37.088,0.04,55.632
			c0.011,2.643,0.237,5.37,0.92,7.908c1.874,6.961,7.142,10.767,14.164,10.616c7.257-0.156,12.366-4.364,13.836-11.714
			c0.555-2.773,0.777-5.656,0.781-8.489c0.05-36.196,0.057-72.393-0.01-108.589c-0.006-3.183-0.266-6.448-1.006-9.531
			c-1.568-6.527-6.454-10.212-13.143-10.435c-9.574-0.32-15.438,5.61-15.522,16.298
			C373.523,198.562,373.632,217.998,373.617,237.434z"/>
	</g>
	<g>
		<path fill="#FFFFFF" d="M287.682,43.604c3.11,1.915,6.12,3.892,9.037,5.925c-0.05-0.038-0.1-0.072-0.15-0.111
			C293.912,47.322,290.877,45.384,287.682,43.604z"/>
		<path fill="#FFFFFF" d="M297.813,50.287c-0.365-0.227-0.73-0.478-1.094-0.758c-2.917-2.033-5.927-4.01-9.037-5.925
			c-10.658-5.936-23.137-10.062-29.681-12.004c-0.359-0.075-0.73-0.166-1.131-0.287c-21.622-6.52-43.73-8.267-66.086-5.281
			c-5.339,0.713-10.643,1.701-15.983,2.764c-0.712,0.164-1.457,0.318-2.258,0.454c-1.775,0.359-3.554,0.72-5.342,1.082
			c-16.613,3.906-31.827,12.564-36.813,15.587c-16.885,10.385-30.885,23.212-41.322,39.778
			c-11.333,17.988-16.596,37.506-14.751,59.031c91.039,0,181.732,0,273.223,0C348.85,102.179,329.288,72.577,297.813,50.287z
			 M92.833,126.448c0.747-3.807,1.189-7.431,2.182-10.898c7.392-25.809,24.522-43.789,47.774-55.477
			c52.346-26.312,103.442-23.666,151.741,10.225c18.275,12.823,29.89,30.822,33.698,53.274c0.146,0.863,0.169,1.747,0.273,2.876
			C250.131,126.448,171.915,126.448,92.833,126.448z"/>
		<path fill="#FFFFFF" d="M297.813,50.287c-0.361-0.255-0.73-0.505-1.094-0.758C297.084,49.809,297.448,50.061,297.813,50.287z"/>
		<path fill="#FFFFFF" d="M287.572,43.535c0.099-0.537,0.081-0.743,0.17-0.875c4.584-6.788,9.215-13.545,13.759-20.361
			c4.584-6.875,3.213-16.694-2.793-20.597c-5.657-3.675-15.311-1.149-19.785,5.277c-4.988,7.164-10.052,14.286-14.742,21.643
			c-1.739,2.728-3.367,3.566-6.18,2.978c6.544,1.942,19.024,6.068,29.681,12.004C287.645,43.581,287.609,43.558,287.572,43.535z"/>
	</g>
	<path fill="#FFFFFF" d="M155.503,64.639c-11.234,0.29-22.575,11.787-22.348,22.653c0.231,11.025,11.734,22.209,22.847,22.213
		c11.383,0.004,23.011-11.552,22.856-22.714C178.702,75.547,166.892,64.345,155.503,64.639z"/>
	<path fill="#FFFFFF" d="M265.571,64.633c-11.269-0.077-22.63,10.866-22.855,22.014c-0.228,11.276,11.144,22.776,22.602,22.855
		c11.165,0.078,22.65-11.016,22.848-22.069C288.369,76.12,277.062,64.711,265.571,64.633z"/>
</g>
</svg>
