<?xml version="1.0" encoding="utf-8"?>
<!-- Generator: Adobe Illustrator 17.0.0, SVG Export Plug-In . SVG Version: 6.00 Build 0)  -->
<!DOCTYPE svg PUBLIC "-//W3C//DTD SVG 1.1//EN" "http://www.w3.org/Graphics/SVG/1.1/DTD/svg11.dtd">
<svg version="1.1" id="Layer_1" xmlns="http://www.w3.org/2000/svg" xmlns:xlink="http://www.w3.org/1999/xlink" x="0px" y="0px"
	 width="443.747px" height="476.537px" viewBox="0 0 443.747 476.537" enable-background="new 0 0 443.747 476.537"
	 xml:space="preserve">
<g>
	<path fill="#FFFFFF" d="M443.684,89.261c-2.522,21.882-5.179,44.952-7.84,68.022c-3.992,34.605-7.98,69.21-11.985,103.814
		c-4.065,35.12-8.19,70.233-12.178,105.361c-0.544,4.792-2.868,7.912-6.972,10.191c-58.761,32.636-117.506,65.3-176.222,98.017
		c-4.541,2.53-8.711,2.481-13.24-0.043c-58.715-32.717-117.461-65.38-176.222-98.016c-4.117-2.287-6.365-5.466-6.906-10.24
		c-3.629-32.03-7.402-64.043-11.111-96.064c-4.028-34.775-8.04-69.552-12.055-104.329c-2.922-25.309-5.917-50.609-8.713-75.932
		c-1.016-9.201,1.017-12.131,9.612-15.211c68.61-24.586,137.237-49.127,205.817-73.796c5.32-1.914,9.949-0.921,15.012,0.903
		c61.891,22.296,123.838,44.436,185.77,66.621c6.356,2.277,12.732,4.503,19.05,6.883C442.111,77.933,444.147,81.162,443.684,89.261z
		 M21.866,96.097c2.366,20.511,4.651,40.311,6.935,60.111c3.993,34.607,7.976,69.215,11.981,103.82
		c3.705,32.023,7.372,64.05,11.284,96.048c0.26,2.126,1.976,4.864,3.812,5.892c54.115,30.302,108.314,60.454,162.602,90.445
		c1.808,0.999,5.147,0.951,6.973-0.058c54.284-29.998,108.481-60.155,162.603-90.444c1.73-0.968,3.398-3.482,3.643-5.456
		c3.239-26.143,6.229-52.317,9.259-78.486c4.006-34.605,7.99-69.213,11.989-103.819c2.924-25.309,5.77-50.627,8.87-75.914
		c0.518-4.225-0.674-5.992-4.724-7.431c-63.621-22.611-127.165-45.435-190.785-68.048c-2.531-0.9-5.923-1-8.429-0.109
		c-64.112,22.781-128.154,45.76-192.239,68.62C22.748,92.299,21.013,93.504,21.866,96.097z"/>
	<path fill="#2bb1a8" d="M333.018,356.864c-8.672,0-17.346-0.12-26.014,0.041c-5.92,0.11-9.769-2.436-12.253-7.769
		c-6.946-14.912-14.135-29.711-21.046-44.64c-1.354-2.924-2.989-3.942-6.252-3.927c-30.177,0.138-60.355,0.167-90.531-0.027
		c-3.799-0.024-5.425,1.417-6.882,4.57c-6.61,14.304-13.573,28.446-20.099,42.787c-2.862,6.29-7.059,9.176-14.119,9.06
		c-17.685-0.29-35.379-0.069-53.069-0.106c-11.182-0.023-15.612-7.167-10.628-17.288c46.433-94.305,92.906-188.589,139.332-282.898
		c2.313-4.699,5.386-8.199,11.05-7.879c5.326,0.301,7.954,3.892,10.136,8.403c26.767,55.342,53.648,110.629,80.491,165.935
		c18.676,38.48,37.342,76.965,56.003,115.453c5.671,11.695,1.465,18.274-11.664,18.283
		C349.321,356.869,341.17,356.865,333.018,356.864z M221.832,82.782c-41.909,85.081-83.175,168.857-124.752,253.263
		c11.177,0,21.232-0.131,31.28,0.078c3.09,0.065,4.597-1.003,5.867-3.741c6.923-14.927,14.105-29.735,21.046-44.654
		c2.568-5.52,6.532-7.977,12.677-7.957c36.084,0.122,72.17,0.117,108.254,0.006c6.372-0.02,10.207,2.701,12.833,8.444
		c6.842,14.963,14.015,29.775,21.151,44.601c0.597,1.239,1.888,3.03,2.889,3.052c10.296,0.225,20.598,0.138,31.676,0.138
		C303.695,251.428,263.045,167.685,221.832,82.782z"/>
	<path fill="#2bb1a8" d="M221.726,263.175c-12.301,0-24.602,0.048-36.903-0.016c-9.498-0.05-14.359-6.527-10.972-15.092
		c12.529-31.682,25.232-63.295,37.913-94.917c1.894-4.723,5.199-7.807,10.619-7.591c5.147,0.205,8.124,3.392,9.918,7.888
		c12.307,30.836,24.598,61.678,36.89,92.52c4.373,10.973,0.183,17.192-11.602,17.205
		C245.635,263.186,233.681,263.175,221.726,263.175z M222.569,185.504c-0.418-0.049-0.836-0.098-1.254-0.147
		c-7.528,18.82-15.057,37.639-22.717,56.788c15.823,0,30.854,0,46.618,0C237.552,222.977,230.06,204.24,222.569,185.504z"/>
</g>
</svg>
