<?xml version="1.0" encoding="utf-8"?>
<!-- Generator: Adobe Illustrator 17.0.0, SVG Export Plug-In . SVG Version: 6.00 Build 0)  -->
<!DOCTYPE svg PUBLIC "-//W3C//DTD SVG 1.1//EN" "http://www.w3.org/Graphics/SVG/1.1/DTD/svg11.dtd">
<svg version="1.1" id="Capa_1" xmlns="http://www.w3.org/2000/svg" xmlns:xlink="http://www.w3.org/1999/xlink" x="0px" y="0px"
	 width="511.596px" height="511.229px" viewBox="268.171 225.344 511.596 511.229"
	 enable-background="new 268.171 225.344 511.596 511.229" xml:space="preserve">
<g>
	<path fill="#2bb1a8" d="M268.171,502.067c6.918,0,13.836,0,21.357,0c0-6.843,0-13.573,0-20.586c7.18,0,13.762,0,20.97,0
		c0,6.674,0,13.4,0,20.901c7.447,0,14.311,0,21.347,0c0,7.386,0,13.983,0,21.17c-6.922,0-13.664,0-20.999,0
		c0,7.297,0,14.024,0,21.066c-7.174,0-13.747,0-20.953,0c0-6.61,0-13.324,0-20.555c-7.647,0-14.685,0-21.723,0
		C268.171,516.731,268.171,509.399,268.171,502.067z"/>
	<path fill="#FFFFFF" d="M407.877,587.754c77.749,0,154.84,0,232.788,0c-0.898-3.396-1.487-6.429-2.499-9.312
		c-3.937-11.214-11.11-20.033-20.695-26.878c-2.597-1.855-3.517-3.877-3.465-7.063c0.438-26.959-6.948-51.562-22.503-73.676
		c-9.125-12.972-10.427-26.655-3.37-41.01c0.951-1.935,1.539-4.047,2.458-6c2.514-5.34,7.99-7.623,13.308-5.641
		c5.266,1.963,7.949,7.346,6.204,12.971c-0.933,3.006-2.078,5.999-3.546,8.777c-3.352,6.342-2.394,12.215,1.516,17.821
		c13.271,19.027,22.445,39.921,24.949,62.936c1.316,12.098,5.032,21.769,13.2,30.776c8.133,8.968,12.53,20.371,14.732,32.348
		c0.624,3.397,2.073,4.253,5.291,4.234c19.828-0.116,39.658-0.092,59.487-0.035c7.089,0.02,11.454,4.106,11.414,10.404
		c-0.039,6.268-4.454,10.462-11.436,10.499c-15.33,0.083-30.66,0.021-45.99,0.019c-1.963,0-3.927,0-6.377,0c0,42.75,0,85,0,127.615
		c-7.076,0-13.665,0-20.912,0c0-42.174,0-84.537,0-127.257c-89.22,0-177.789,0-266.791,0c0,10.329,0,20.715,0,31.647
		c67.206,0,134.423,0,202.008,0c0,7.106,0,13.684,0,21.17c-1.926,0-3.995,0-6.065,0c-63.487,0.008-126.974,0.073-190.46-0.086
		c-4.92-0.012-6.052,1.474-5.998,6.172c0.241,20.826,0.094,41.657,0.088,62.486c-0.001,1.822,0,3.644,0,5.851
		c-6.994,0-13.699,0-20.854,0c0-42.365,0-84.616,0-127.598c-2.194,0-3.954-0.001-5.715,0c-11.998,0.005-23.995,0.069-35.992-0.007
		c-6.999-0.045-11.485-4.214-11.514-10.417c-0.03-6.389,4.198-10.443,11.326-10.47c19.662-0.075,39.326-0.1,58.987,0.042
		c3.589,0.026,5.174-0.904,5.954-4.707c3.331-16.24,11.207-30.107,22.749-41.999c1.561-1.608,2.925-4.097,3.084-6.273
		c1.987-27.318,10.042-52.559,25.627-75.166c4.76-6.905,5.698-13.315,2.533-21.419c-13.361-34.21-17.331-69.869-15.49-106.408
		c1.296-25.728,4.196-51.124,13.427-75.347c2.582-6.776,5.947-13.469,10.112-19.385c11.251-15.98,25.837-15.892,37.41-0.229
		c7.76,10.502,12.048,22.611,15.136,35.081c11.11,44.851,11.362,89.965,2.605,135.226c-0.189,0.979-0.37,1.96-0.506,2.947
		c-0.044,0.314,0.068,0.65,0.07,0.668c13.183,0,26.33,0,40.029,0c-1.077-6.432-2.439-13.37-3.376-20.364
		c-5.678-42.381-4.718-84.462,7.714-125.639c3.027-10.025,7.827-19.937,13.747-28.574c10.353-15.103,25.138-14.7,36.074,0.031
		c10.693,14.404,15.089,31.358,18.627,48.533c5.24,25.435,6.468,51.176,5.016,77.05c-0.23,4.103,0.901,6.03,4.924,7.516
		c34.325,12.679,68.585,25.538,102.764,38.608c4.024,1.539,7.708,4.347,11.073,7.141c4.728,3.925,9.009,8.388,13.835,12.955
		c-15.373,10.218-30.008,19.945-44.941,29.872c9.722,9.537,18.985,18.623,28.329,27.788c-5.381,4.969-10.326,9.535-15.845,14.631
		c-8.358-8.718-17.526-18.281-27.048-28.213c-10.818,16.07-20.928,31.087-31.217,46.371c-6.01-5.982-11.701-11.573-17.281-17.273
		c-0.884-0.903-1.412-2.24-1.872-3.463c-17.379-46.244-34.732-92.497-52.077-138.753c-0.171-0.455-0.195-0.965-0.465-2.373
		c3.104,0.895,5.794,1.67,9.056,2.611c0-11.67,0.38-22.956-0.081-34.207c-0.881-21.495-3.067-42.847-9.968-63.41
		c-1.105-3.293-2.511-6.549-4.246-9.553c-4.441-7.689-9.452-7.896-13.443-0.074c-3.145,6.164-5.699,12.818-7.313,19.543
		c-7.926,33.031-9.132,66.622-6.237,100.286c1.278,14.857,4.631,29.546,7.343,44.255c0.349,1.893,2.304,3.701,3.909,5.093
		c1.602,1.39,3.751,2.13,5.571,3.293c5.496,3.51,7.173,9.52,4.158,14.634c-2.99,5.07-9.229,6.651-14.812,3.371
		c-11.696-6.872-24.218-10.976-37.78-11.588c-15.497-0.699-30.09,2.642-43.615,10.362c-1.157,0.66-2.267,1.425-3.479,1.961
		c-5.129,2.272-10.768,0.523-13.503-4.119c-2.873-4.877-1.955-11.77,3.346-13.853c8.952-3.517,10.497-10.668,12.248-18.58
		c7.501-33.901,7.883-68.125,4.142-102.383c-1.562-14.306-5.127-28.424-8.33-42.502c-0.966-4.247-3.383-8.338-5.846-12.026
		c-3.177-4.758-7.575-4.907-10.262,0.135c-3.636,6.824-7.193,14.081-8.693,21.571c-3.064,15.301-5.657,30.813-6.792,46.359
		c-2.886,39.499-0.989,78.534,14.39,115.895c5.123,12.445,3.319,24.627-4.41,35.599c-16.074,22.818-23.801,48.086-23.492,75.972
		c0.023,2.082-1.955,4.778-3.777,6.192c-10.605,8.231-18.28,18.355-21.628,31.504C408.311,584.499,408.196,585.805,407.877,587.754z
		 M719.2,426.566c-30.885-11.577-60.727-22.764-91.777-34.403c11.705,31.21,22.871,60.985,34.345,91.579
		c1.528-2.026,2.545-3.257,3.435-4.575c4.843-7.173,9.901-14.217,14.4-21.601c3.735-6.131,8.494-10.823,14.645-14.541
		C702.457,438.063,710.293,432.485,719.2,426.566z"/>
	<path fill="#2bb1a8" d="M716.452,694.526c6.94,0,13.679,0,21.006,0c0-7.31,0-14.04,0-21.061c7.181,0,13.763,0,20.974,0
		c0,6.661,0,13.385,0,20.896c7.453,0,14.319,0,21.335,0c0,7.393,0,13.988,0,21.186c-6.93,0-13.671,0-21.015,0
		c0,7.315,0,14.047,0,21.06c-7.194,0-13.774,0-20.986,0c0-6.666,0-13.395,0-20.903c-7.456,0-14.326,0-21.313,0
		C716.452,708.317,716.452,701.72,716.452,694.526z"/>
	<path fill="#2bb1a8" d="M385.084,289.201c7.551,0,14.29,0,21.33,0c0,7.087,0,13.665,0,20.944c-5.803,0-11.4,0.151-16.984-0.057
		c-3.291-0.122-4.395,1.078-4.275,4.319c0.202,5.467,0.055,10.946,0.055,16.834c-7.068,0-13.766,0-20.978,0
		c0-6.958,0-13.698,0-20.912c-7.087,0-13.681,0-20.701,0c0-7.161,0-13.849,0-20.933c6.669,0,13.27,0,20.442,0
		c0-7.075,0-13.798,0-20.938c7.243,0,13.924,0,21.111,0C385.084,275.147,385.084,281.733,385.084,289.201z"/>
	<path fill="#2bb1a8" d="M502.703,547.833c0,1.665,0.26,3.387-0.093,4.973c-0.229,1.026-1.197,2.436-2.102,2.679
		c-11.153,3.003-18.448-2.188-19.239-13.516c-0.549-7.872-5.861-12.533-14.837-13.02c-5.989-0.325-10.096-3.323-11.144-8.135
		c-1.514-6.954,3.395-12.768,10.813-12.807c18.317-0.096,35.582,17.283,36.578,36.829c0.051,0.996,0.007,1.997,0.007,2.996
		C502.692,547.833,502.698,547.833,502.703,547.833z"/>
	<path fill="#2bb1a8" d="M581.488,508.042c6.959-0.139,11.526,3.796,11.687,10.068c0.159,6.212-4.177,10.455-11.081,10.842
		c-10.061,0.564-14.423,4.885-15.353,15.206c-0.78,8.658-7.466,13.577-14.584,10.569c-4.435-1.874-6.546-5.512-6.535-10.276
		C545.665,526.44,563.463,508.402,581.488,508.042z"/>
	<path fill="#2bb1a8" d="M513.863,556.292c7.066,0,13.637,0,20.522,0c0,6.848,0,13.411,0,20.315c-6.831,0-13.509,0-20.522,0
		C513.863,569.882,513.863,563.321,513.863,556.292z"/>
	<path fill="#FFFFFF" d="M609.907,661.873c0-6.915,0-13.616,0-20.514c6.914,0,13.504,0,20.436,0c0,6.879,0,13.58,0,20.514
		C623.427,661.873,616.844,661.873,609.907,661.873z"/>
</g>
</svg>
