<?xml version="1.0" encoding="utf-8"?>
<!-- Generator: Adobe Illustrator 17.0.0, SVG Export Plug-In . SVG Version: 6.00 Build 0)  -->
<!DOCTYPE svg PUBLIC "-//W3C//DTD SVG 1.1//EN" "http://www.w3.org/Graphics/SVG/1.1/DTD/svg11.dtd">
<svg version="1.1" id="Capa_1" xmlns="http://www.w3.org/2000/svg" xmlns:xlink="http://www.w3.org/1999/xlink" x="0px" y="0px"
	 width="480.103px" height="479.946px" viewBox="283.917 241.019 480.103 479.946"
	 enable-background="new 283.917 241.019 480.103 479.946" xml:space="preserve">
<g>
	<path fill="#FFFFFF" d="M651.888,271.738c2.874,2.046,5.265,3.296,7.089,5.114c33.515,33.408,66.969,66.878,100.419,100.352
		c6.147,6.151,6.152,9.489,0.099,15.546c-25.326,25.34-50.658,50.672-75.999,75.996c-5.855,5.851-9.335,5.887-15.176-0.014
		c-5.127-5.179-10.105-10.507-16.069-16.73c-0.181,2.918-0.344,4.318-0.344,5.719c-0.015,83.815-0.016,167.629-0.018,251.444
		c0,9.599-2.175,11.802-11.657,11.802c-115.141,0-230.282-0.002-345.423-0.002c-8.237,0-10.885-2.533-10.885-10.58
		c-0.007-126.305-0.033-252.61,0.163-378.915c0.005-3.249,1.657-7.306,3.931-9.617c25.368-25.765,50.938-51.334,76.702-76.703
		c2.313-2.278,6.353-3.96,9.596-3.968c89.146-0.206,178.293-0.163,267.44-0.147c7.436,0.001,10.104,2.75,10.128,10.312
		C651.905,258.339,651.888,265.331,651.888,271.738z M603.894,704.76c0-1.713,0-3.016,0-4.32
		c-0.005-97.462,0.009-194.923-0.129-292.385c-0.003-2.155-1.202-4.814-2.725-6.381c-10.913-11.229-22.216-22.083-32.991-33.439
		c-2.247-2.368-3.93-6.319-3.972-9.565c-0.323-24.986-0.183-49.978-0.173-74.968c0.003-8.149,2.552-10.665,10.772-10.675
		c9.606-0.012,19.212-0.003,28.864-0.003c0-5.643,0-10.694,0-15.605c-74.719,0-149.08,0-223.619,0
		c0,23.383,0.01,46.367-0.006,69.352c-0.005,7.561-2.66,10.231-10.184,10.237c-21.325,0.018-42.65,0.006-63.974,0.006
		c-1.785,0-3.571,0-5.551,0c0,122.841,0,245.187,0,367.745C401.386,704.76,502.287,704.76,603.894,704.76z M579.902,289.023
		c0,2.392,0,4.195,0,5.997c0.003,19.484-0.103,38.97,0.147,58.451c0.031,2.452,1.326,5.482,3.058,7.23
		c29.666,29.917,59.492,59.674,89.29,89.461c1.123,1.123,2.313,2.179,2.48,2.336c23.118-23.116,45.779-45.775,68.541-68.535
		c-30.652-30.668-61.834-61.885-93.075-93.042c-0.951-0.948-2.515-1.812-3.797-1.818
		C624.578,288.992,602.61,289.023,579.902,289.023z M620.249,420.305c0,95.743,0,190.077,0,284.42c5.297,0,10.23,0,15.627,0
		c0-1.861,0-3.481,0-5.102c0.001-34.654,0-69.308,0.002-103.962c0.003-51.481,0.032-102.962-0.072-154.443
		c-0.005-2.274-0.598-5.067-1.988-6.719C629.865,429.799,625.357,425.565,620.249,420.305z M363.822,270.549
		c-16.758,16.756-33.678,33.674-50.092,50.086c15.99,0,32.991,0,50.092,0C363.822,303.467,363.822,286.685,363.822,270.549z
		 M635.555,272.92c0-5.49,0-10.521,0-15.528c-5.373,0-10.407,0-15.24,0c0,5.41,0,10.446,0,15.528
		C625.535,272.92,630.33,272.92,635.555,272.92z"/>
	<path fill="#FFFFFF" d="M763.874,613.458c0,29.812,0.008,59.623-0.004,89.435c-0.005,11.869-6.268,18.063-18.244,18.072
		c-14.656,0.012-29.312,0.025-43.968-0.005c-11.307-0.023-17.758-6.362-17.762-17.55c-0.022-59.956-0.062-119.912,0.133-179.868
		c0.01-3.193,1.386-6.923,3.338-9.477c9.399-12.301,19.191-24.303,28.892-36.372c4.954-6.164,10.231-6.173,15.211,0.004
		c9.718,12.055,19.531,24.041,28.907,36.358c2.029,2.666,3.322,6.605,3.35,9.971C763.981,553.834,763.875,583.646,763.874,613.458z
		 M747.542,704.729c0-58.741,0-117.089,0-175.341c-16.051,0-31.76,0-47.416,0c0,58.634,0,116.866,0,175.341
		C715.961,704.729,731.551,704.729,747.542,704.729z M708.814,512.652c10.37,0,19.854,0,30.136,0
		c-5.274-6.587-10.061-12.565-15.078-18.83C718.665,500.333,714.001,506.166,708.814,512.652z"/>
	<path fill="#2bb1a8" d="M475.817,657.281c0.687,9.632-0.142,18.655-7.768,25.442c-4.669,4.156-10.134,6.293-16.41,6.24
		c-14.815-0.125-21.828-9.301-24.088-31.697c-11.779-1.388-20.097-7.215-23.008-19.252c-0.616-2.547-0.608-5.282-0.615-7.932
		c-0.045-16.996-0.098-33.994,0.066-50.989c0.03-3.125-0.981-4.624-3.792-5.988c-72.026-34.967-90.841-127.527-38.209-187.603
		c57.525-65.661,165.193-48.684,199.816,31.506c25.665,59.442,0.447,127.582-57.808,155.806c-3.249,1.574-4.206,3.357-4.171,6.79
		c0.17,16.828,0.066,33.659,0.093,50.489C499.95,645.926,492.245,654.875,475.817,657.281z M480.063,564.643
		c45.943-12.031,80.444-57.847,75.335-108.797c-5.676-56.604-50.894-95.947-107.549-94.84c-51.742,1.011-96.486,44.23-99.7,96.944
		c-3.477,57.015,37.209,97.488,75.57,106.452c-3.898-27.394-7.776-54.646-11.7-82.224c5.474-0.787,10.484-1.508,15.615-2.246
		c0.401,1.986,0.769,3.428,0.977,4.893c3.132,22.08,6.352,44.148,9.324,66.249c2.595,19.295,2.56,19.39,21.073,17.736
		c0.332-0.03,0.791,0.074,0.975-0.106c1.335-1.304,3.53-2.521,3.769-4.031c2.261-14.299,4.164-28.655,6.215-42.988
		c1.975-13.8,4.004-27.591,6.072-41.816c5.434,0.807,10.45,1.552,15.766,2.342C487.879,509.778,484.013,536.914,480.063,564.643z
		 M483.677,580.588c-21.22,5.84-42.26,5.79-63.373,0.045c0,4.359,0,8.234,0,12.09c21.306,0,42.222,0,63.373,0
		C483.677,588.7,483.677,584.938,483.677,580.588z M420.152,616.657c21.421,0,42.455,0,63.534,0c0-2.598,0-4.866,0-7.406
		c-21.252,0-42.283,0-63.534,0C420.152,611.758,420.152,614.03,420.152,616.657z M483.876,633.295c-21.592,0-42.62,0-63.994,0
		c0.996,5.143,3.771,7.655,8.616,7.666c15.639,0.036,31.278,0.045,46.917-0.019C480.241,640.923,483.049,638.413,483.876,633.295z
		 M444.04,657.22c0.152,5.361-2.004,11.329,3.939,14.392c2.263,1.167,6.466,0.893,8.62-0.511c5.218-3.401,3.026-8.994,3.105-13.88
		C454.21,657.22,449.292,657.22,444.04,657.22z"/>
	<path fill="#FFFFFF" d="M444.137,304.69c0-5.313,0-10.244,0-15.429c21.145,0,42.06,0,63.377,0c0,4.969,0,10.021,0,15.429
		C486.598,304.69,465.565,304.69,444.137,304.69z"/>
	<path fill="#FFFFFF" d="M484.134,336.68c0-5.302,0-10.231,0-15.418c21.15,0,42.06,0,63.377,0c0,4.959,0,10.009,0,15.418
		C526.589,336.68,505.561,336.68,484.134,336.68z"/>
	<path fill="#FFFFFF" d="M587.673,585.328c0,5.272,0,10.202,0,15.399c-21.13,0-42.04,0-63.368,0c0-4.929,0-9.979,0-15.399
		C545.208,585.328,566.235,585.328,587.673,585.328z"/>
	<path fill="#FFFFFF" d="M587.677,617.32c0,5.285,0,10.214,0,15.407c-21.144,0-42.055,0-63.377,0c0-4.941,0-9.992,0-15.407
		C545.205,617.32,566.233,617.32,587.677,617.32z"/>
	<path fill="#FFFFFF" d="M524.175,649.231c0.854-0.104,1.484-0.248,2.115-0.248c20.293-0.012,40.586-0.01,61.245-0.01
		c0,5.282,0,10.333,0,15.704c-21.012,0-42.046,0-63.36,0C524.175,659.634,524.175,654.702,524.175,649.231z"/>
	<path fill="#FFFFFF" d="M524.138,304.753c0-5.15,0-10.078,0-15.377c7.69,0,15.398,0,23.441,0c0,5.002,0,10.045,0,15.377
		C539.792,304.753,532.086,304.753,524.138,304.753z"/>
	<path fill="#FFFFFF" d="M643.898,329.052c-0.038,13.301-10.971,24.086-24.298,23.97c-13.052-0.114-23.718-10.937-23.699-24.048
		c0.019-13.335,10.908-24.076,24.279-23.95C633.254,305.148,643.935,315.968,643.898,329.052z M619.961,336.989
		c4.301-0.02,7.89-3.613,7.904-7.914c0.014-4.32-3.497-7.939-7.796-8.038c-4.5-0.103-8.265,3.666-8.156,8.166
		C612.017,333.502,615.642,337.008,619.961,336.989z"/>
	<path fill="#FFFFFF" d="M673.32,421.643c-3.516-3.312-7.114-6.702-10.378-9.777c13.289-13.31,26.393-26.434,39.658-39.72
		c3.19,3.298,6.711,6.938,9.925,10.26C699.498,395.444,686.387,408.565,673.32,421.643z"/>
	<path fill="#2bb1a8" d="M391.487,472.147c-2.47-4.968-4.669-9.391-7.133-14.347c11.353-5.611,22.258-11.212,33.4-16.294
		c1.829-0.834,4.936,0.117,7.049,1.105c8.133,3.802,16.041,8.085,24.183,11.867c1.633,0.759,4.22,0.759,5.855,0.002
		c8.145-3.774,16.019-8.143,24.215-11.793c2.453-1.092,6.116-1.589,8.41-0.555c10.592,4.776,20.896,10.189,31.912,15.677
		c-2.317,4.755-4.531,9.299-6.996,14.358c-8.356-4.168-16.547-8.087-24.559-12.342c-2.805-1.49-4.958-1.551-7.791-0.023
		c-7.609,4.103-15.275,8.18-23.232,11.519c-2.813,1.18-6.961,1.199-9.761,0.009c-8.249-3.506-16.068-8.012-24.204-11.807
		c-1.63-0.76-4.221-0.759-5.852,0.001C408.558,463.449,400.303,467.735,391.487,472.147z"/>
</g>
</svg>
