<?xml version="1.0" encoding="utf-8"?>
<!-- Generator: Adobe Illustrator 17.0.0, SVG Export Plug-In . SVG Version: 6.00 Build 0)  -->
<!DOCTYPE svg PUBLIC "-//W3C//DTD SVG 1.1//EN" "http://www.w3.org/Graphics/SVG/1.1/DTD/svg11.dtd">
<svg version="1.1" id="Layer_1" xmlns="http://www.w3.org/2000/svg" xmlns:xlink="http://www.w3.org/1999/xlink" x="0px" y="0px"
	 width="374.04px" height="476.54px" viewBox="0 0 374.04 476.54" enable-background="new 0 0 374.04 476.54" xml:space="preserve">
<g>
	<path fill="#FFFFFF" d="M246.553,0c-0.225,0.714-0.11,1.448-0.11,2.172c-0.006,117.745-0.006,235.491-0.006,353.236
		c0,2.373,0.002,2.385-2.273,2.816c-9.813,1.856-19.659,3.517-29.544,4.946c-8.652,1.251-17.322,2.329-26.027,3.141
		c-7.464,0.696-14.936,1.243-22.426,1.563c-8.065,0.345-16.132,0.597-24.204,0.482c-11.356-0.163-22.679-0.856-33.925-2.492
		c-14.103-2.052-27.878-5.382-41.061-10.909c-14.388-6.032-27.244-14.327-37.923-25.81c-7.918-8.515-14.037-18.191-18.567-28.883
		c-4.102-9.682-6.77-19.762-8.337-30.147c-0.793-5.253-1.353-10.526-1.625-15.833c-0.063-1.223-0.035-2.489-0.526-3.664
		c0-3.437,0-6.875,0-10.312c0.588-1.963,0.656-3.971,0.518-5.997c0.307-5.825,0.963-11.61,1.93-17.364
		c2.021-12.023,5.504-23.591,10.741-34.609c6.864-14.443,16.274-26.971,28.403-37.417c12.973-11.172,27.802-18.963,44.109-24.015
		c14.769-4.575,29.916-6.67,45.354-6.936c12.386-0.213,24.651,0.604,36.683,3.771c0.192,0.05,0.406,0.068,0.653-0.238
		c0-0.504,0-1.124,0-1.744c0-37.909,0-75.817,0.002-113.726c0-0.676,0.025-1.353,0.038-2.029C194.472,0,220.513,0,246.553,0z
		 M171.134,244.524c0-20.05,0-40.1,0-60.15c0-0.417-0.016-0.834,0-1.25c0.022-0.556-0.222-0.875-0.77-0.992
		c-0.304-0.065-0.595-0.186-0.892-0.281c-8.679-2.759-17.597-3.637-26.66-3.442c-6.692,0.144-13.285,0.959-19.716,2.843
		c-15.864,4.645-27.352,14.383-34.153,29.518c-3.648,8.118-5.417,16.696-6.109,25.522c-0.408,5.197-0.427,10.397-0.072,15.605
		c0.472,6.938,1.611,13.746,3.879,20.328c5.098,14.8,14.667,25.446,29.313,31.326c7.722,3.1,15.804,4.478,24.065,4.802
		c10.014,0.393,19.973-0.385,29.895-1.73c1.022-0.138,1.262-0.245,1.223-1.325c-0.013-0.364-0.002-0.729-0.002-1.094
		C171.134,284.311,171.134,264.417,171.134,244.524z"/>
	<path fill="#2bb1a8" d="M366.236,0c0.006,2.343,0.017,4.686,0.017,7.029c0.001,23.484,0.002,46.967-0.002,70.451
		c0,2.167,0.218,1.899-1.926,1.899c-24.733,0.006-49.467,0.005-74.2,0.001c-2.141,0-1.931,0.25-1.931-1.906
		c-0.004-25.202-0.002-50.404-0.006-75.606c0-0.623-0.048-1.245-0.073-1.868C314.155,0,340.196,0,366.236,0z"/>
	<path fill="#A4DAC5" d="M0,234.366c0.173-0.02,0.346-0.04,0.518-0.059c0.137,2.026,0.07,4.034-0.518,5.997
		C0,238.324,0,236.345,0,234.366z"/>
	<path fill="#FFFFFF" d="M219.958,442.653c0.62-0.572,1.381-0.791,2.075-1.121c9.174-4.365,18.164-9.064,26.65-14.676
		c8.563-5.662,16.384-12.167,22.811-20.235c7.055-8.858,12.041-18.824,15.655-29.505c2.391-7.066,3.93-14.338,5.058-21.704
		c1.262-8.238,2.024-16.523,2.543-24.838c0.421-6.757,0.695-13.517,0.914-20.282c0.323-9.996,0.365-19.995,0.373-29.993
		c0.042-51.455,0.056-102.909,0.08-154.364c0-0.469,0.033-0.94-0.006-1.406c-0.069-0.84,0.328-1.125,1.112-1.042
		c0.257,0.027,0.52,0.004,0.781,0.004c24.738,0,49.476-0.001,74.215,0.002c2.015,0,1.818-0.195,1.818,1.864
		c0,60.257-0.009,120.514,0.005,180.771c0.002,8.021-0.171,16.04-0.385,24.056c-0.207,7.754-0.59,15.504-1.217,23.237
		c-0.938,11.574-2.342,23.082-4.936,34.422c-4.033,17.638-11.3,33.811-21.984,48.414c-7.212,9.856-16.188,17.884-26.204,24.795
		c-8.331,5.748-17.156,10.643-26.172,15.213c-0.862,0.437-1.529,0.312-2.33-0.067c-15.055-7.116-30.12-14.213-45.183-21.314
		c-7.814-3.683-15.629-7.363-23.44-11.053C221.443,443.478,220.646,443.212,219.958,442.653z"/>
</g>
</svg>
