<?xml version="1.0" encoding="utf-8"?>
<!-- Generator: Adobe Illustrator 17.0.0, SVG Export Plug-In . SVG Version: 6.00 Build 0)  -->
<!DOCTYPE svg PUBLIC "-//W3C//DTD SVG 1.1//EN" "http://www.w3.org/Graphics/SVG/1.1/DTD/svg11.dtd">
<svg version="1.1" id="Layer_1" xmlns="http://www.w3.org/2000/svg" xmlns:xlink="http://www.w3.org/1999/xlink" x="0px" y="0px"
	 width="1252.381px" height="476.537px" viewBox="0 0 1252.381 476.537" enable-background="new 0 0 1252.381 476.537"
	 xml:space="preserve">
<g>
	<path fill="#FFFFFF" d="M472.402,388.533c0-131.891,0-256.111,0-384.09c18.3-0.843,34.484-1.589,53.615-2.471
		c0,156.434,0,310.274,0,463.953c-56.887,11.141-61.232,9.511-90.696-35.835C361.472,316.438,287.728,202.716,208.849,81.174
		c0,134.132,0,259.687,0,386.906c-19.39,0-34.962,0-53.274,0c0-153.892,0-307.793,0-461.588c56.244-13.073,65.583-9.133,95.116,37.3
		c68.545,107.767,137.324,215.385,206.07,323.023C460.241,372.265,464.309,377.338,472.402,388.533z"/>
	<path fill="#FFFFFF" d="M632.405,467.865c0-155.328,0-308.615,0-463.547c79.114,0,156.329,0,235.036,0c0,16.683,0,31.275,0,49.458
		c-59.381,0-117.789,0-177.914,0c0,51.863,0,100.145,0,151.646c54.985,0,108.451,0,164.043,0c0,18.458,0,33.775,0,52.101
		c-53.722,0-107.268,0-163.309,0c0,54.026,0,105.127,0,159.462c62.45,0,123.899,0,187.461,0c0,18.394,0,33.647,0,50.881
		C796.725,467.865,716.258,467.865,632.405,467.865z"/>
	<path fill="#FFFFFF" d="M1062.542,468.004c0-137.732,0-274.044,0-413.677c-45.949,0-88.414,0-132.566,0c0-17.878,0-32.411,0-50.537
		c10.4-0.536,20.956-1.537,31.514-1.551c82.902-0.11,165.804-0.064,248.706,0.004c45.77,0.037,45.77,0.098,38.856,51.405
		c-41.666,0-84.04,0-130.006,0c0,140.17,0,276.408,0,414.356C1098.936,468.004,1082.535,468.004,1062.542,468.004z"/>
	<path fill="#2bb1a8" d="M73.87,440.681c-1.805,19.19-11.677,33.54-34.317,35.696c-20.818,1.982-40.029-14.564-39.543-35.258
		c0.501-21.338,10.652-36.077,33.831-37.794C55.36,401.73,72.956,417.457,73.87,440.681z"/>
</g>
</svg>
