<?xml version="1.0" encoding="utf-8"?>
<!-- Generator: Adobe Illustrator 17.0.0, SVG Export Plug-In . SVG Version: 6.00 Build 0)  -->
<!DOCTYPE svg PUBLIC "-//W3C//DTD SVG 1.1//EN" "http://www.w3.org/Graphics/SVG/1.1/DTD/svg11.dtd">
<svg version="1.1" id="Capa_1" xmlns="http://www.w3.org/2000/svg" xmlns:xlink="http://www.w3.org/1999/xlink" x="0px" y="0px"
	 width="510.998px" height="510.334px" viewBox="268.47 225.77 510.998 510.334"
	 enable-background="new 268.47 225.77 510.998 510.334" xml:space="preserve">
<g>
	<path fill="#FFFFFF" d="M729.324,225.77H318.618c-27.653,0-50.148,22.499-50.148,50.16v267.127
		c0,27.903,22.702,50.604,50.604,50.604h108.971l-10.078,42.214h-20.986c-21.805,0-39.544,17.739-39.544,39.544v13.63
		c0,4.191,3.396,7.591,7.587,7.591h74.25l-3.314,31.068c-0.23,2.14,0.464,4.281,1.903,5.879c1.439,1.602,3.489,2.518,5.641,2.518
		l303.326-0.004c2.148,0,4.199-0.908,5.637-2.507c1.439-1.595,2.133-3.727,1.91-5.864l-5.786-55.676
		c-0.433-4.168-4.152-7.201-8.331-6.764c-4.168,0.433-7.197,4.164-6.764,8.331l4.916,47.302H626.977l-17.212-161.251
		c-0.409-3.86-3.665-6.784-7.544-6.784h-83.653l6.768-65.111h32.195v16.69c0,4.191,3.4,7.591,7.591,7.591s7.591-3.4,7.591-7.591
		v-16.69h94.097v16.69c0,4.191,3.396,7.591,7.591,7.591c4.191,0,7.587-3.4,7.587-7.591v-16.69h32.195l16.643,160.164
		c0.405,3.903,3.7,6.803,7.54,6.803c0.261,0,0.526-0.012,0.791-0.039c4.172-0.433,7.197-4.164,6.764-8.335l-5.614-54.027
		c22.491-5.24,39.162-25.552,39.162-49.287V275.93C779.472,248.269,756.973,225.77,729.324,225.77z M443.647,593.661h6.616
		l-4.503,42.214h-12.191L443.647,593.661z M372.614,681.462v-6.043c0-13.435,10.928-24.366,24.366-24.366h47.158l-3.244,30.409
		H372.614z M611.71,720.924H451.948l16.316-152.858h127.131L611.71,720.924z M572.712,472.596v-18.211
		c0-25.942,21.103-47.049,47.049-47.049c25.942,0,47.049,21.107,47.049,47.049v18.211H572.712z M681.99,472.596v-18.211
		c0-34.312-27.918-62.226-62.23-62.226s-62.226,27.914-62.226,62.226v18.211h-39.037c-3.887,0-7.146,2.94-7.548,6.807l-5.302,50.994
		H374.848c-4.191,0-7.587,3.396-7.587,7.587c0,4.191,3.396,7.591,7.587,7.591h129.22l-0.76,7.314h-41.867
		c-3.879,0-7.135,2.924-7.548,6.784l-2.008,18.811H319.074c-18.682,0-34.027-14.546-35.326-32.904h65.801
		c4.191,0,7.587-3.396,7.587-7.587s-3.396-7.591-7.587-7.591h-65.903V275.93c0-19.29,15.688-34.982,34.971-34.982h410.706
		c19.283,0,34.971,15.692,34.971,34.982v254.468h-30.421l-5.298-50.994c-0.402-3.867-3.661-6.807-7.548-6.807H681.99z
		 M738.723,577.08l-3.275-31.505h28.745C763.129,560.452,752.739,572.998,738.723,577.08z"/>
	<path fill="#2bb1a8" d="M509.008,319.922h-61.341v-22.768c0-13.669-11.123-24.791-24.791-24.791
		c-13.669,0-24.791,11.123-24.791,24.791v22.768h-61.341c-9.977,0-18.094,8.117-18.094,18.09v12.386
		c0,8.004,5.232,14.799,12.448,17.181l10.394,79.201c2.016,15.365,15.22,26.947,30.713,26.947h101.341
		c15.493,0,28.694-11.583,30.713-26.947l10.394-79.201c7.216-2.378,12.448-9.177,12.448-17.181v-12.386
		C527.098,328.039,518.981,319.922,509.008,319.922z M509.008,335.099c1.606,0,2.912,1.306,2.912,2.912v12.386
		c0,1.606-1.306,2.916-2.912,2.916h-61.341v-18.214H509.008z M413.261,297.154c0-5.302,4.312-9.614,9.614-9.614
		c5.298,0,9.61,4.312,9.61,9.614v81.961c0,5.302-4.312,9.614-9.61,9.614c-5.302,0-9.614-4.312-9.614-9.614V297.154z
		 M333.827,338.012c0-1.606,1.31-2.912,2.916-2.912h61.341v18.214h-61.341c-1.606,0-2.916-1.31-2.916-2.916V338.012z
		 M489.207,444.807c-1.025,7.832-7.762,13.743-15.661,13.743H372.205c-7.903,0-14.635-5.91-15.665-13.743l-10.012-76.316h51.556
		v10.624c0,13.673,11.123,24.791,24.791,24.791c13.673,0,24.791-11.119,24.791-24.791v-10.624h51.559L489.207,444.807z"/>
	<path fill="#2bb1a8" d="M506.786,623.75v-32.632c0-4.191-3.396-7.587-7.587-7.587c-4.191,0-7.591,3.396-7.591,7.587v32.632
		c0,22.179,18.043,40.222,40.222,40.222c22.175,0,40.218-18.043,40.218-40.222v-32.632c0-4.191-3.396-7.587-7.587-7.587
		s-7.591,3.396-7.591,7.587v32.632c0,13.809-11.232,25.045-25.041,25.045C518.022,648.795,506.786,637.559,506.786,623.75z"/>
	<path fill="#FFFFFF" d="M595.71,302.861h-32.382c-4.191,0-7.587,3.4-7.587,7.591s3.396,7.587,7.587,7.587h32.382
		c4.191,0,7.587-3.396,7.587-7.587S599.901,302.861,595.71,302.861z"/>
	<path fill="#FFFFFF" d="M629.102,318.039h105.236c4.191,0,7.587-3.396,7.587-7.587s-3.396-7.591-7.587-7.591H629.102
		c-4.195,0-7.591,3.4-7.591,7.591S624.907,318.039,629.102,318.039z"/>
	<path fill="#FFFFFF" d="M595.71,338.281h-32.382c-4.191,0-7.587,3.396-7.587,7.587s3.396,7.591,7.587,7.591h32.382
		c4.191,0,7.587-3.4,7.587-7.591S599.901,338.281,595.71,338.281z"/>
	<path fill="#FFFFFF" d="M741.924,345.867c0-4.191-3.396-7.587-7.587-7.587H629.102c-4.195,0-7.591,3.396-7.591,7.587
		s3.396,7.591,7.591,7.591h105.236C738.529,353.458,741.924,350.058,741.924,345.867z"/>
</g>
</svg>
