<?xml version="1.0" encoding="utf-8"?>
<!-- Generator: Adobe Illustrator 17.0.0, SVG Export Plug-In . SVG Version: 6.00 Build 0)  -->
<!DOCTYPE svg PUBLIC "-//W3C//DTD SVG 1.1//EN" "http://www.w3.org/Graphics/SVG/1.1/DTD/svg11.dtd">
<svg version="1.1" id="Layer_1" xmlns="http://www.w3.org/2000/svg" xmlns:xlink="http://www.w3.org/1999/xlink" x="0px" y="0px"
	 width="476.518px" height="476.537px" viewBox="0 0 476.518 476.537" enable-background="new 0 0 476.518 476.537"
	 xml:space="preserve">
<g>
	<path fill="#2bb1a8" d="M176.169,137.893c-0.8-9.599-1.476-17.897-2.186-26.192c-0.483-5.642,1.2-8.51,6.466-10.287
		c8.035-2.711,16.099-5.337,24.191-7.875c5.502-1.725,8.376-0.628,11.399,4.259c4.114,6.653,8.272,13.287,12.105,20.102
		c1.663,2.957,3.628,3.823,7.006,4.205c8.099,0.916,13.39-1.568,16.716-9.339c2.269-5.303,5.966-9.984,8.898-15.016
		c2.558-4.39,6.196-5.881,10.979-4.36c8.398,2.671,16.773,5.416,25.137,8.19c4.374,1.451,6.4,4.552,6.017,9.165
		c-0.662,7.965-1.165,15.949-2.1,23.882c-0.394,3.346,0.576,5.21,3.078,7.555c6.14,5.755,12.013,6.815,19.426,2.315
		c4.779-2.901,10.333-4.541,15.572-6.667c5.548-2.251,8.269-1.598,11.719,3.04c5.168,6.947,10.205,13.99,15.287,21.001
		c2.843,3.922,2.63,7.699-0.543,11.357c-5.239,6.04-10.339,12.205-15.733,18.103c-2.157,2.359-2.302,4.383-1.797,7.534
		c1.391,8.679,6.101,12.639,14.681,13.525c5.578,0.576,11.005,2.541,16.529,3.747c4.966,1.084,7.42,4.001,7.39,9.118
		c-0.051,8.662-0.038,17.325-0.004,25.988c0.02,5.11-2.466,7.973-7.436,9.077c-7.956,1.767-15.83,3.913-23.815,5.523
		c-2.942,0.593-3.757,2.234-4.986,4.628c-4.069,7.924-2.678,14.133,3.99,20.012c4.209,3.71,7.486,8.475,11.198,12.753
		c3.175,3.659,3.354,7.431,0.508,11.355c-5.083,7.01-10.103,14.066-15.26,21.021c-3.456,4.661-6.152,5.323-11.699,3.035
		c-7.226-2.981-14.497-5.876-21.573-9.183c-3.205-1.498-5.295-0.656-8.126,0.999c-6.485,3.793-9.987,8.204-8.018,16.359
		c1.39,5.756,1.134,11.909,1.625,17.884c0.474,5.772-1.156,8.55-6.405,10.314c-8.038,2.701-16.1,5.334-24.191,7.87
		c-5.637,1.767-8.462,0.592-11.68-4.657c-4.001-6.527-8.075-13.016-11.839-19.679c-1.652-2.924-3.603-3.834-6.996-4.226
		c-8.125-0.939-13.41,1.564-16.747,9.328c-2.279,5.301-5.948,9.995-8.875,15.031c-2.554,4.395-6.192,5.873-10.977,4.35
		c-8.398-2.673-16.779-5.399-25.141-8.18c-4.35-1.447-6.433-4.516-6.037-9.152c0.693-8.13,1.248-16.275,2.161-24.381
		c0.336-2.981-0.54-4.653-2.746-6.738c-6.32-5.975-12.536-7.202-20.268-2.479c-4.772,2.915-10.339,4.526-15.543,6.739
		c-4.659,1.981-8.364,0.889-11.321-3.243c-5.039-7.041-10.183-14.007-15.261-21.02c-2.834-3.915-2.632-7.704,0.542-11.364
		c5.348-6.166,10.56-12.455,16.066-18.476c2.098-2.294,1.906-4.266,1.454-7.137c-1.357-8.621-5.974-12.718-14.629-13.558
		c-5.577-0.541-11.004-2.535-16.528-3.741c-4.949-1.08-7.454-3.95-7.422-9.086c0.054-8.662,0.041-17.325,0.001-25.988
		c-0.024-5.108,2.453-7.994,7.412-9.106c7.952-1.782,15.829-3.911,23.812-5.526c2.924-0.592,3.776-2.203,5.007-4.608
		c4.058-7.926,2.692-14.157-3.975-20.045c-4.207-3.716-7.517-8.449-11.22-12.734c-3.155-3.652-3.348-7.44-0.498-11.365
		c5.088-7.006,10.204-13.992,15.237-21.038c2.959-4.143,6.683-5.186,11.331-3.212c7.501,3.186,15.055,6.252,22.488,9.588
		c2.585,1.16,4.564,1.212,6.79-0.721c2.38-2.066,5.193-3.634,7.578-5.695C175.463,139.838,175.966,138.238,176.169,137.893z
		 M127.129,309.6c2.528,3.492,4.907,6.501,6.965,9.716c1.506,2.351,3.051,2.387,5.412,1.341c6.842-3.032,13.829-5.735,20.669-8.772
		c3.94-1.749,7.318-1.282,10.716,1.281c5.716,4.311,11.518,8.514,17.368,12.643c3.147,2.221,4.685,4.991,4.279,8.907
		c-0.481,4.637-0.901,9.289-1.085,13.945c-0.171,4.341-1.651,9.999,0.472,12.692c2.299,2.916,8.098,3.074,12.374,4.423
		c0.135,0.043,0.312-0.05,0.877-0.156c4.251-7.001,8.758-14.176,12.999-21.506c2.241-3.872,5.268-5.731,9.74-5.656
		c6.996,0.117,13.996,0.109,20.993,0.009c4.443-0.063,7.524,1.719,9.769,5.614c4.229,7.337,8.729,14.518,13.272,22.022
		c4.907-1.615,9.588-3.156,14.492-4.769c-0.435-5.773-0.722-11.246-1.281-16.69c-1.891-18.423-1.956-14.801,11.184-24.353
		c17.526-12.74,11.518-11.876,31.806-3.508c12.999,5.362,12.953,5.479,20.937-6.366c0.162-0.241,0.119-0.62,0.22-1.22
		c-5.211-6.035-10.407-12.327-15.915-18.331c-3.392-3.697-4.529-7.401-2.705-12.259c2.394-6.378,4.454-12.891,6.406-19.422
		c1.23-4.117,3.65-6.393,7.883-7.308c8.414-1.819,16.761-3.95,25.174-5.962c0-5.263,0-10.208,0-15.332
		c-8.579-2.041-16.95-4.139-25.375-5.989c-4.018-0.882-6.388-3.053-7.579-6.983c-1.977-6.524-3.998-13.051-6.412-19.42
		c-1.817-4.796-1.027-8.553,2.413-12.309c5.612-6.128,10.907-12.548,16.476-19.008c-2.361-3.286-4.721-6.289-6.756-9.497
		c-1.579-2.489-3.188-2.674-5.787-1.503c-6.822,3.074-13.813,5.771-20.67,8.769c-3.745,1.637-7.015,1.241-10.275-1.202
		c-5.73-4.293-11.503-8.537-17.391-12.609c-3.544-2.451-4.927-5.564-4.499-9.807c0.75-7.456,1.416-14.926,1.82-22.406
		c0.076-1.4-0.886-3.702-1.974-4.166c-3.914-1.666-8.087-2.722-12.288-4.048c-4.344,7.169-8.714,13.864-12.534,20.859
		c-2.756,5.046-6.566,7.028-12.18,6.757c-5.985-0.289-12.002-0.272-17.989-0.018c-5.228,0.222-8.813-1.619-11.419-6.284
		c-4.038-7.232-8.513-14.22-12.838-21.369c-3.873,1.243-7.297,2.585-10.842,3.408c-3.132,0.727-3.837,2.364-3.521,5.342
		c0.793,7.451,1.267,14.935,1.977,22.395c0.366,3.847-0.888,6.745-4.089,9.001c-6.125,4.317-11.923,9.148-18.308,13.02
		c-2.461,1.492-6.348,1.804-9.238,1.141c-4.309-0.989-8.302-3.337-12.443-5.073c-13.142-5.507-13.145-5.501-20.817,6.761
		c-0.08,0.128-0.073,0.311-0.191,0.857c5.384,6.232,10.845,12.722,16.504,19.034c2.957,3.299,3.928,6.694,2.405,10.974
		c-2.396,6.736-4.627,13.536-6.721,20.372c-1.202,3.924-3.569,6.083-7.592,6.964c-8.428,1.845-16.798,3.957-25.266,5.977
		c0,5.261,0,10.338,0,15.413c8.726,2.064,17.127,4.124,25.567,6.015c3.811,0.854,6.078,2.995,7.235,6.712
		c2.125,6.828,4.331,13.636,6.739,20.369c1.594,4.458,0.586,7.961-2.533,11.398C138.169,296.588,132.842,302.984,127.129,309.6z"/>
	<path fill="#FFFFFF" d="M216.889,427.474c-5.327-4.968-10.655-9.936-16.217-15.123c4.293-3.908,8.046-7.324,11.862-10.797
		c10.393,10.258,21.386,20.891,32.085,31.813c2.904,2.965,2.674,7.032-0.24,9.994c-10.609,10.786-21.436,21.356-32.428,32.253
		c-3.474-3.768-6.832-7.408-10.342-11.215c5.761-5.555,11.921-11.494,18.081-17.434c-0.216-0.513-0.433-1.027-0.649-1.54
		c-47.098-4.798-88.318-22.775-122.817-55.055c-34.433-32.219-55.223-71.873-63.144-118.823c3.097-0.513,5.683-0.963,8.277-1.363
		c2.408-0.371,4.825-0.688,7.214-1.026C63.968,364.608,145.157,422.831,216.889,427.474z"/>
	<path fill="#FFFFFF" d="M443.764,204.913c-5.559,0.892-10.43,1.674-15.671,2.515c-9.601-53.289-35.84-95.837-79.921-126.893
		c-26.311-18.536-55.659-29.311-88.204-32.023c5.437,5.042,10.874,10.085,16.481,15.285c-4.479,4.39-8.1,7.938-11.93,11.691
		c-10.715-10.68-21.519-21.281-32.096-32.104c-2.894-2.962-3.121-7.048-0.213-10.007c10.719-10.908,21.734-21.524,32.846-32.455
		c3.464,3.594,6.912,7.171,10.747,11.15c-6.135,5.839-12.345,11.75-18.554,17.661c0.184,0.43,0.369,0.859,0.553,1.289
		c47.119,4.79,88.346,22.797,122.868,55.12C415.09,118.369,435.804,158.03,443.764,204.913z"/>
	<path fill="#FFFFFF" d="M205.106,32.857c0.892,5.584,1.67,10.455,2.504,15.68c-53.867,9.691-96.678,36.396-127.736,81.139
		c-18.03,25.974-28.551,54.893-31.97,86.296c0.377,0.286,0.754,0.572,1.131,0.859c4.922-5.548,9.845-11.096,14.975-16.879
		c4.34,4.62,7.731,8.23,11.385,12.12c-0.398,0.518-0.979,1.476-1.748,2.248c-9.403,9.445-18.808,18.889-28.268,28.277
		c-4.996,4.958-8.827,4.999-13.755,0.132c-10.182-10.056-20.3-20.177-30.755-30.581c4.12-3.596,7.942-6.932,12.318-10.752
		c5.136,5.403,11.044,11.619,17.884,18.815c4.94-48.359,22.825-89.458,54.958-123.927C118.22,61.75,157.903,40.945,205.106,32.857z"
		/>
	<path fill="#FFFFFF" d="M427.975,259.703c-5.069,5.415-10.137,10.829-15.292,16.335c-4.292-4.257-7.893-7.828-11.563-11.469
		c10.795-10.912,21.352-21.761,32.142-32.374c2.963-2.915,7.058-3.038,10.006-0.141c10.91,10.721,21.534,21.733,32.382,32.753
		c-3.54,3.481-7.083,6.965-11.215,11.03c-5.772-6.276-11.572-12.583-17.372-18.889c-0.487,0.238-0.974,0.477-1.461,0.715
		c-4.784,46.935-22.682,88.035-54.813,122.491c-32.197,34.526-71.876,55.366-119.017,63.408c-0.889-5.353-1.716-10.337-2.599-15.65
		c53.724-9.712,96.456-36.231,127.513-80.794C414.878,321.015,425.428,291.959,427.975,259.703z"/>
	<path fill="#FFFFFF" d="M26.196,166.573c-5.308-1.817-9.976-3.414-15.236-5.214C32.221,101.288,70.505,56.495,126.341,25.831
		c2.55,4.848,4.853,9.224,7.467,14.193c-25.204,13.603-47.286,30.989-65.793,52.731C49.489,114.519,35.589,138.959,26.196,166.573z"
		/>
	<path fill="#FFFFFF" d="M350.519,450.593c-2.67-5.044-4.982-9.414-7.485-14.142c52.057-28.483,87.903-70.555,107.715-126.511
		c5.027,1.703,9.703,3.287,15.094,5.113C444.696,375.047,406.417,419.853,350.519,450.593z"/>
	<path fill="#FFFFFF" d="M157.249,12.239c1.898,5.254,3.573,9.89,5.42,14.999c-4.781,1.935-9.316,3.771-14.444,5.846
		c-2.129-4.769-4.183-9.371-6.488-14.534C146.953,16.428,151.817,14.449,157.249,12.239z"/>
	<path fill="#FFFFFF" d="M319.545,464.188c-1.908-5.324-3.571-9.966-5.386-15.03c4.831-1.931,9.383-3.751,14.464-5.782
		c2.135,4.816,4.18,9.43,6.436,14.521C329.793,460.032,324.92,462.008,319.545,464.188z"/>
	<path fill="#FFFFFF" d="M158.422,238.091c0.037-44.111,36.12-79.973,80.351-79.86c43.828,0.112,79.661,36.154,79.626,80.091
		c-0.035,44.018-36.245,80.006-80.378,79.886C194.206,318.09,158.385,282.035,158.422,238.091z M238.548,174.229
		c-35.174-0.055-64.051,28.635-64.128,63.714c-0.077,35.223,28.557,64.168,63.579,64.27c35.41,0.103,64.348-28.649,64.405-63.99
		C302.461,203.133,273.674,174.284,238.548,174.229z"/>
	<path fill="#FFFFFF" d="M214.149,245.995c-5.181,0-10.103,0-15.38,0c0-5.064,0-10.105,0-15.463c5.032,0,10.072,0,15.38,0
		C214.149,235.566,214.149,240.489,214.149,245.995z"/>
	<path fill="#FFFFFF" d="M230.653,245.933c0-5.099,0-10.019,0-15.337c4.997,0,10.038,0,15.429,0c0,4.955,0,9.992,0,15.337
		C240.987,245.933,235.951,245.933,230.653,245.933z"/>
	<path fill="#FFFFFF" d="M278.31,230.535c0,5.261,0,10.067,0,15.282c-5.068,0-10.115,0-15.543,0c0-4.862,0-9.905,0-15.282
		C267.771,230.535,272.811,230.535,278.31,230.535z"/>
</g>
</svg>
