<?xml version="1.0" encoding="utf-8"?>
<!-- Generator: Adobe Illustrator 17.0.0, SVG Export Plug-In . SVG Version: 6.00 Build 0)  -->
<!DOCTYPE svg PUBLIC "-//W3C//DTD SVG 1.1//EN" "http://www.w3.org/Graphics/SVG/1.1/DTD/svg11.dtd">
<svg version="1.1" id="Layer_1" xmlns="http://www.w3.org/2000/svg" xmlns:xlink="http://www.w3.org/1999/xlink" x="0px" y="0px"
	 width="406.401px" height="476.537px" viewBox="0 0 406.401 476.537" enable-background="new 0 0 406.401 476.537"
	 xml:space="preserve">
<g>
	<path fill="#2bb1a8" d="M199.991,0c3.302,3.137,7.092,5.898,9.832,9.467c41.257,53.746,82.361,107.609,123.561,161.398
		c2.499,3.262,4.145,6.572,3.013,10.696c-1.183,4.308-4.821,6.675-10.482,6.7c-14.424,0.065-28.85,0.141-43.271-0.043
		c-4.099-0.052-5.667,0.979-5.593,5.44c0.272,16.436,0.001,32.88,0.205,49.318c0.049,3.921-1.223,5.186-5.029,4.967
		c-4.587-0.263-9.2-0.062-14.07-0.062c-0.111-2.206-0.253-3.718-0.254-5.23c-0.009-20.473-0.011-40.946,0.013-61.419
		c0.01-8.744,3.263-12.039,12.094-12.101c10.391-0.073,20.783-0.016,31.174-0.016c1.67,0,3.341,0,6.508,0
		c-36.856-48.21-72.909-95.37-109.56-143.313c-36.464,47.69-72.547,94.882-109.28,142.923c2.539,0.172,4.132,0.371,5.727,0.374
		c10.547,0.017,21.093-0.053,31.64-0.004c8.779,0.041,12.122,3.412,12.128,12.091c0.013,20.473,0.008,40.946-0.005,61.419
		c-0.001,1.515-0.127,3.029-0.224,5.191c-5.771,0-11.309,0.176-16.81-0.191c-0.821-0.055-2.093-2.656-2.107-4.089
		c-0.159-16.439-0.316-32.884,0-49.318c0.092-4.81-1.321-6.097-5.975-6.005c-13.798,0.274-27.606,0.062-41.409,0.139
		c-4.743,0.027-9.044-0.619-11.351-5.463c-2.274-4.776-0.238-8.543,2.665-12.333c41.861-54.653,83.643-109.367,125.556-163.98
		c1.993-2.596,5.031-4.39,7.583-6.558C197.509,0,198.75,0,199.991,0z"/>
	<path fill="#FFFFFF" d="M59.449,476.54c0-9.691,0-19.382,0-29.327c6.587,0,12.564,0,19.546,0c0,9.725,0,19.526,0,29.327
		C72.479,476.54,65.964,476.54,59.449,476.54z"/>
	<path fill="#FFFFFF" d="M138.451,278.019c0,13.035,0,25.726,0,38.861c-6.369,0-12.465,0-19.11,0
		c-0.074-1.36-0.223-2.843-0.226-4.325c-0.026-14.266-0.046-28.533-0.03-42.799c0.008-7.843,3.401-11.296,11.379-11.301
		c44.97-0.027,89.94-0.021,134.909,0.033c8.778,0.011,11.935,3.535,11.855,12.22c-0.126,13.645-0.055,27.291-0.067,40.937
		c-0.001,1.672,0,3.344,0,5.341c-6.534,0-12.631,0-19.196,0c0-12.985,0-25.791,0-38.968
		C217.915,278.019,178.329,278.019,138.451,278.019z"/>
	<path fill="#FFFFFF" d="M138.436,347.446c0,9.783,0,19.205,0,29.033c-6.422,0-12.517,0-19.335,0c0-3.327,0-6.675,0-10.023
		c-0.001-8.84-0.028-17.681,0.006-26.521c0.034-8.795,3.3-12.094,12.034-12.097c42.341-0.016,84.682-0.006,127.022-0.005
		c3.102,0,6.21-0.129,9.304,0.026c5.408,0.27,9.516,3.72,9.609,8.833c0.239,13.15,0.08,26.306,0.08,39.828
		c-6.479,0-12.575,0-19.178,0c0-9.641,0-19.18,0-29.074C218.028,347.446,178.576,347.446,138.436,347.446z"/>
	<path fill="#FFFFFF" d="M406.148,297.408c-6.247,0-12.238,0-18.624,0c0-69.111,0-138.17,0-207.546c6.14,0,12.243,0,18.624,0
		C406.148,158.949,406.148,227.904,406.148,297.408z"/>
	<path fill="#FFFFFF" d="M257.96,426.555c0-6.834,0-12.982,0-19.514c-39.883,0-79.328,0-119.396,0c0,6.189,0,12.442,0,19.441
		c-6.111,0-11.625,0.112-17.124-0.123c-0.809-0.034-2.202-1.701-2.217-2.631c-0.151-9.3-0.298-18.613,0.032-27.904
		c0.19-5.347,4.719-8.427,11.378-8.432c25.896-0.02,51.791-0.004,77.687-0.001c19.073,0.002,38.146-0.018,57.218,0.019
		c8.329,0.016,11.818,3.727,11.7,12.02c-0.108,7.596-0.185,15.197-0.024,22.791c0.066,3.114-0.738,4.539-4.116,4.388
		C268.203,426.393,263.29,426.555,257.96,426.555z"/>
	<path fill="#FFFFFF" d="M59.536,238.693c6.59,0,12.58,0,18.919,0c0,62.335,0,124.595,0,187.681c-5.709,0-11.515,0.15-17.288-0.209
		c-0.644-0.04-1.576-2.966-1.586-4.558c-0.112-18.3-0.074-36.602-0.071-54.903c0.007-40.945,0.018-81.889,0.027-122.834
		C59.536,242.328,59.536,240.784,59.536,238.693z"/>
	<path fill="#FFFFFF" d="M277.174,465.983c-6.594,0-12.583,0-19.059,0c-0.135-3.058-0.267-6.059-0.412-9.341
		c-39.792,0-79.27,0-119.205,0c0,3.113,0,5.989,0,9.582c-3.474,0-6.512,0-9.549,0c-3.07,0-6.14,0-9.679,0
		c0-7.529-0.343-14.626,0.125-21.668c0.296-4.452,4.451-7.231,9.879-7.326c8.837-0.153,17.678-0.094,26.517-0.094
		c36.287-0.001,72.574,0.011,108.862,0.014c9.564,0.001,12.757,3.342,12.541,12.934
		C277.079,455.188,277.174,460.298,277.174,465.983z"/>
	<path fill="#FFFFFF" d="M307.69,322.694c0-22.938,0.104-45.877-0.092-68.813c-0.037-4.318,1.279-5.805,5.518-5.338
		c4.396,0.485,10.286-1.028,12.825,1.288c2.235,2.04,0.878,8.161,0.881,12.48c0.031,43.086-0.037,86.173,0.094,129.258
		c0.012,4.088-1.158,5.642-5.272,5.245c-3.071-0.297-6.212-0.27-9.289-0.007c-3.769,0.322-4.744-1.28-4.725-4.835
		C307.749,368.88,307.691,345.787,307.69,322.694z"/>
	<path fill="#FFFFFF" d="M0.236,219.052c6.502,0,12.482,0,18.727,0c0,26.178,0,52.097,0,78.304c-6.242,0-12.335,0-18.727,0
		C0.236,271.253,0.236,245.34,0.236,219.052z"/>
	<path fill="#FFFFFF" d="M18.991,318.124c0,9.881,0,19.08,0,28.631c-6.216,0-12.291,0-18.98,0c0-8.853-0.057-17.599,0.099-26.342
		c0.014-0.776,1.391-2.161,2.173-2.188C7.771,318.034,13.269,318.124,18.991,318.124z"/>
	<path fill="#FFFFFF" d="M406.387,346.851c-6.67,0-12.641,0-19.194,0c0-8.999-0.057-17.753,0.1-26.502
		c0.014-0.76,1.415-2.103,2.219-2.14c4.78-0.217,9.579-0.254,14.357-0.031c0.874,0.041,2.389,1.542,2.407,2.395
		C406.458,329.189,406.387,337.812,406.387,346.851z"/>
	<path fill="#FFFFFF" d="M18.992,396.693c-5.818,0-11.203,0.091-16.579-0.097c-0.822-0.029-2.279-1.337-2.293-2.075
		c-0.161-8.755-0.104-17.514-0.104-26.521c6.577,0,12.657,0,18.976,0C18.992,377.488,18.992,386.686,18.992,396.693z"/>
	<path fill="#FFFFFF" d="M387.165,367.745c6.09,0,11.334-0.011,16.578,0.012c0.737,0.003,1.473,0.174,2.426,0.294
		c0,9.418,0,18.613,0,28.591c-5.721,0-11.355,0.088-16.978-0.112c-0.703-0.025-1.922-1.564-1.937-2.418
		C387.108,385.51,387.165,376.903,387.165,367.745z"/>
	<path fill="#FFFFFF" d="M326.846,441.64c0,3.708-0.061,7.418,0.021,11.125c0.056,2.54-1.028,3.74-3.579,3.574
		c-0.154-0.01-0.309,0.002-0.463,0.01c-15.132,0.774-15.133,0.774-15.134-14.259c0-3.863,0.062-7.726-0.005-11.588
		c-0.041-2.358,0.943-3.301,3.326-3.231c4.168,0.121,8.346,0.127,12.514,0.004c2.4-0.071,3.357,0.903,3.316,3.242
		c-0.065,3.707-0.017,7.416-0.017,11.124C326.831,441.64,326.838,441.64,326.846,441.64z"/>
</g>
</svg>
