<?xml version="1.0" encoding="utf-8"?>
<!-- Generator: Adobe Illustrator 17.0.0, SVG Export Plug-In . SVG Version: 6.00 Build 0)  -->
<!DOCTYPE svg PUBLIC "-//W3C//DTD SVG 1.1//EN" "http://www.w3.org/Graphics/SVG/1.1/DTD/svg11.dtd">
<svg version="1.1" id="Layer_1" xmlns="http://www.w3.org/2000/svg" xmlns:xlink="http://www.w3.org/1999/xlink" x="0px" y="0px"
	 width="476.518px" height="476.537px" viewBox="0 0 476.518 476.537" enable-background="new 0 0 476.518 476.537"
	 xml:space="preserve">
<g>
	<path fill="#FFFFFF" d="M0,230.822c1.533-5.16,2.652-10.488,4.67-15.45c8.951-22.01,30.444-36.452,54.105-36.661
		c5.117-0.045,10.237-0.079,15.353,0.006c8.706,0.145,15.221,6.572,15.197,14.878c-0.024,8.325-6.472,14.666-15.245,14.858
		c-4.96,0.108-9.926-0.042-14.887,0.049c-16.27,0.299-29.302,13.088-29.348,29.403c-0.141,49.936-0.137,99.873-0.006,149.809
		c0.042,16.184,13.213,29.057,29.515,29.22c14.266,0.143,28.535,0.064,42.802,0.02c11.167-0.035,16.955-5.766,16.962-16.884
		c0.029-47.921,0.426-95.846-0.132-143.76c-0.383-32.926,11.999-58.669,38.563-78.215c23.566-17.34,45.105-36.93,61.499-61.539
		c11.942-17.925,19.002-37.324,19.338-59.183c0.424-27.595,21.359-51.499,48.505-56.407c1.186-0.214,2.333-0.641,3.498-0.968
		c4.964,0,9.928,0,14.892,0c3.414,0.901,6.865,1.683,10.236,2.723c24.463,7.54,41.567,30.084,41.817,55.619
		c0.227,23.261,0.704,46.552-0.22,69.778c-0.449,11.297-3.325,22.605-6.061,33.672c-2.585,10.458,1.534,16.857,12.284,16.882
		c17.525,0.04,35.05,0.036,52.575,0.009c34.132-0.053,60.542,26.112,60.606,60.243c0.074,39.548,0.153,79.097-0.015,118.644
		c-0.253,59.337-43.912,109.474-102.439,117.803c-4.898,0.697-9.884,1.079-14.83,1.093c-35.05,0.098-70.101,0.079-105.151,0.056
		c-7.434-0.005-12.876-3.779-15.029-10.188c-1.995-5.938-0.371-12.789,4.897-16.162c3.064-1.962,7.141-3.25,10.773-3.277
		c33.652-0.248,67.307-0.141,100.962-0.164c51.881-0.035,91.08-39.409,91.054-91.408c-0.016-33.189,0.018-66.378,0.01-99.567
		c-0.007-28.323-18.925-47.25-47.223-47.271c-11.477-0.008-22.954,0.092-34.429-0.018c-31.447-0.301-52.437-29.401-42.681-59.266
		c3.499-10.712,5.342-21.589,5.247-32.876c-0.157-18.609-0.024-37.221-0.049-55.832c-0.024-17.458-13.023-30.758-29.959-30.707
		c-16.647,0.05-29.483,13.332-29.611,30.588c-0.066,8.99,0.431,18.044-0.469,26.954c-1.257,12.446-6.956,23.444-14.034,33.538
		c-22.428,31.984-49.247,59.782-80.625,83.097c-11.528,8.565-19.437,19.489-22.516,33.582c-0.951,4.353-1.414,8.9-1.422,13.36
		c-0.092,51.955-0.08,103.909-0.04,155.864c0.018,23.943-15.994,40.044-39.887,39.998c-15.819-0.03-31.638,0.003-47.457-0.021
		c-31.587-0.048-55.015-19.492-60.86-50.462c-0.109-0.576-0.484-1.103-0.734-1.652C0,340.028,0,285.425,0,230.822z"/>
	<path fill="#2bb1a8" d="M193.801,416.98c8.076,0.09,14.666,6.761,14.675,14.855c0.01,8.267-6.842,15.021-15.117,14.901
		c-8.105-0.118-14.658-6.77-14.65-14.871C178.718,423.537,185.46,416.887,193.801,416.98z"/>
</g>
</svg>
