<?xml version="1.0" encoding="utf-8"?>
<!-- Generator: Adobe Illustrator 17.0.0, SVG Export Plug-In . SVG Version: 6.00 Build 0)  -->
<!DOCTYPE svg PUBLIC "-//W3C//DTD SVG 1.1//EN" "http://www.w3.org/Graphics/SVG/1.1/DTD/svg11.dtd">
<svg version="1.1" id="Layer_1" xmlns="http://www.w3.org/2000/svg" xmlns:xlink="http://www.w3.org/1999/xlink" x="0px" y="0px"
	 width="388.491px" height="476.537px" viewBox="0 0 388.491 476.537" enable-background="new 0 0 388.491 476.537"
	 xml:space="preserve">
<g>
	<path fill="#2bb1a8" d="M214.351,41.47C245.662,0.201,289.191,0,289.191,0s6.475,38.799-24.631,76.176
		c-33.213,39.909-70.964,33.379-70.964,33.379S186.507,78.167,214.351,41.47z"/>
	<path fill="#FFFFFF" d="M197.578,136.733c16.108,0,46.003-22.142,84.916-22.142c66.982,0,93.332,47.662,93.332,47.662
		s-51.537,26.35-51.537,90.286c0,72.126,64.201,96.983,64.201,96.983S343.612,475.84,282.993,475.84
		c-27.842,0-49.488-18.762-78.823-18.762c-29.895,0-59.562,19.462-78.884,19.462C69.932,476.542,0,356.716,0,260.396
		c0-94.765,59.193-144.477,114.713-144.477C150.806,115.919,178.814,136.733,197.578,136.733L197.578,136.733z"/>
</g>
</svg>
