<?xml version="1.0" encoding="utf-8"?>
<!-- Generator: Adobe Illustrator 17.0.0, SVG Export Plug-In . SVG Version: 6.00 Build 0)  -->
<!DOCTYPE svg PUBLIC "-//W3C//DTD SVG 1.1//EN" "http://www.w3.org/Graphics/SVG/1.1/DTD/svg11.dtd">
<svg version="1.1" id="Layer_1" xmlns="http://www.w3.org/2000/svg" xmlns:xlink="http://www.w3.org/1999/xlink" x="0px" y="0px"
	 width="352.029px" height="476.537px" viewBox="0 0 352.029 476.537" enable-background="new 0 0 352.029 476.537"
	 xml:space="preserve">
<g>
	<path fill="#2bb1a8" d="M225.16,0c9.15,12.244,12.559,24.985,11.189,38.935c-2.378,24.217-15.669,42.869-31.471,60.117
		c-9.531,10.403-20.403,19.336-31.317,28.219c-8.792,7.155-16.891,15-23.651,24.151c-13.83,18.721-15.463,38.332-4.526,59
		c5.63,10.64,12.911,20.172,19.557,30.135c3.517,5.272,6.763,10.724,9.567,16.517c-6.856-3.995-12.111-9.617-17.587-14.954
		c-13.227-12.893-26.105-26.118-35.27-42.378c-12.379-21.962-10.878-38.464,5.302-57.823c11.623-13.907,26.04-24.735,40.163-35.869
		c13.582-10.707,27.222-21.336,38.681-34.442c17.317-19.805,24.578-42.351,19.031-68.491C224.707,2.546,224.943,1.901,225.16,0z"/>
	<path fill="#F9FBFB" d="M72.715,403.761c-11.082,2.663-21.976,5.229-32.198,10.022c-4.04,1.894-9.987,3.227-9.727,8.525
		c0.27,5.498,6.549,5.748,10.695,7.078c19.7,6.316,40.175,8.32,60.653,9.586c56.561,3.495,113.008,2.02,169.23-5.405
		c14.621-1.931,29.251-4.168,43.028-9.805c8.655-3.541,10.806-6.807,10.614-14.525c7.312,3.868,8.117,8.196,2.324,13.602
		c-4.803,4.482-10.729,7.147-16.779,9.441c-28.073,10.647-57.495,14.937-87.126,17.896c-47.907,4.784-95.859,4.209-143.766-0.088
		c-20.438-1.833-40.817-4.319-61.005-8.111c-5.223-0.981-10.382-2.332-14.837-5.404c-4.483-3.091-5.013-7.004-1.627-11.212
		c1.429-1.775,3.129-3.486,5.042-4.694c18.559-11.721,38.681-18.197,60.811-17.638C69.608,403.069,71.159,403.508,72.715,403.761z"
		/>
	<path fill="#2bb1a8" d="M276.929,98.632c-1.091,3.186-3.848,3.755-5.896,5.013c-13.377,8.212-26.6,16.641-38.875,26.459
		c-3.421,2.736-6.791,5.559-9.973,8.565c-22.107,20.88-23.495,34.658-6.102,59.715c2.894,4.169,5.935,8.238,8.736,12.467
		c8.097,12.225,8.056,24.696,0.551,37.108c-6.657,11.01-16.233,18.903-28.044,24.478c1.104-1.545,2.249-3.062,3.305-4.64
		c9.005-13.454,8.609-26.909-1.449-39.614c-5.88-7.427-11.788-14.798-15.911-23.402c-9.588-20.007-7.837-38.832,5.884-56.411
		c6.898-8.838,15.434-15.843,24.718-21.985c18.421-12.187,38.609-20.545,59.536-27.268C274.432,98.789,275.566,98.81,276.929,98.632
		z"/>
	<path fill="#FBFCFC" d="M109.96,369.882c-3.487,5.993-0.387,8.301,4.078,9.796c8.617,2.886,17.669,3.037,26.576,4.037
		c26.136,2.934,52.011,0.526,77.676-4.445c4.907-0.951,8.79-0.397,13.037,2.07c5.875,3.411,12.14,6.15,19.355,9.731
		c-14.607,6.449-28.686,10.256-43.12,12.771c-29.836,5.198-59.603,5.393-89.143-2.074c-8.28-2.093-16.423-4.775-23.165-10.32
		c-6.576-5.408-6.341-10.76,0.432-15.821C99.162,373.029,103.48,371.216,109.96,369.882z"/>
	<path fill="#F8FAFB" d="M117.205,262.31c-10.574,3.34-21.245,6.249-31.443,10.579c-3.169,1.346-6.225,2.993-9.223,4.695
		c-1.805,1.025-3.714,2.46-3.553,4.741c0.192,2.708,2.7,3.603,4.861,4.329c8.609,2.893,17.598,3.828,26.571,4.179
		c52.243,2.043,104.211-0.947,155.871-9.078c1.821-0.287,3.661-0.515,5.5-0.604c1.131-0.055,2.277,0.207,5.01,0.494
		c-7.36,4.979-13.566,9.038-21.24,10.762c-29.368,6.597-59.189,9.519-89.172,10.625c-33.458,1.235-66.901,0.951-100.023-5.034
		c-5.226-0.944-10.401-2.148-15.257-4.342c-2.902-1.311-6.377-2.497-6.41-6.425c-0.03-3.493,2.982-5.054,5.61-6.44
		c14.568-7.687,30.003-12.966,46.142-16.186C99.248,262.849,108.078,261.278,117.205,262.31z"/>
	<path fill="#FAFBFC" d="M98.498,317.291c-4.627,10.431-3.363,13.654,7.223,15.478c24.633,4.244,49.522,4.878,74.435,3.362
		c18.644-1.134,37.13-3.72,55.466-7.321c2.233-0.438,4.485-1.045,6.544,0.785c4.656,4.138,10.22,6.918,16.749,10.413
		c-14.943,4.851-29.206,7.641-43.582,9.819c-35.059,5.31-70.177,6.849-105.324,0.776c-9.095-1.572-18.099-3.611-26.231-8.229
		c-9.547-5.422-9.922-11.647-1.071-17.836C87.228,321.377,92.175,318.994,98.498,317.291z"/>
	<path fill="#F5F7F9" d="M70.349,464.776c8.335-1.599,16.24,0.517,24.201,1.168c64.876,5.308,129.427,3.875,193.494-8.649
		c10.858-2.123,21.554-4.863,32.092-8.25c10.481-3.368,20.448-7.822,30.399-14.794c-0.378,6.953-4.427,10.137-8.177,13.231
		c-8.323,6.868-18.247,10.681-28.411,13.816c-28.4,8.758-57.743,11.834-87.204,13.68c-40.797,2.557-81.583,2.153-122.244-2.558
		C92.838,471.07,81.255,469.174,70.349,464.776z"/>
	<path fill="#2bb1a8" d="M287.477,264.73c15.659-12.098,42.198-9.988,55.774,4.434c10.06,10.687,11.591,25.432,3.978,39.03
		c-4.599,8.214-11.182,14.628-18.78,20.021c-15.23,10.809-32.337,17.321-50.615,22.161c0.939-3.316,3.723-3.684,5.722-4.815
		c12.283-6.957,24.025-14.616,33.944-24.804c4.047-4.156,7.652-8.647,10.341-13.785c5.625-10.749,6.982-21.636-0.794-31.889
		c-7.86-10.364-18.673-13.722-31.322-11.471c-2.699,0.48-5.289,1.755-8.131,0.916L287.477,264.73z"/>
	<path fill="#F9FAFB" d="M287.594,264.527c0.038,0.178,0.076,0.356,0.114,0.534c0.454-0.396,0.384-0.514-0.22-0.342
		C287.477,264.73,287.594,264.527,287.594,264.527z"/>
</g>
</svg>
