<?xml version="1.0" encoding="utf-8"?>
<!-- Generator: Adobe Illustrator 17.0.0, SVG Export Plug-In . SVG Version: 6.00 Build 0)  -->
<!DOCTYPE svg PUBLIC "-//W3C//DTD SVG 1.1//EN" "http://www.w3.org/Graphics/SVG/1.1/DTD/svg11.dtd">
<svg version="1.1" id="Layer_1" xmlns="http://www.w3.org/2000/svg" xmlns:xlink="http://www.w3.org/1999/xlink" x="0px" y="0px"
	 width="693.738px" height="476.54px" viewBox="0 0 693.738 476.54" enable-background="new 0 0 693.738 476.54"
	 xml:space="preserve">
<g>
	<path fill="none" d="M387.311,325.256l180.52-44.223c-0.905,0.086-1.88,0.266-2.954,0.533
		C505.719,296.255,446.503,310.709,387.311,325.256z"/>
	<path fill="#FFFFFF" d="M564.877,281.567c1.074-0.267,2.049-0.447,2.954-0.533l65.022-15.929l0.005,0.002
		c14.954-3.676,29.909-7.352,44.85-11.082c16.982-4.239,20.617-14.055,10.537-28.224c-23.295-32.746-46.646-65.452-69.902-98.225
		c-4.437-6.253-10.091-9.187-17.819-8.057c-32.877,4.806-65.771,9.496-98.644,14.332c-16.476,2.424-21.086,13.127-11.619,26.95
		c19.484,28.448,39.063,56.831,58.591,85.248c1.514,2.203,2.94,4.467,4.574,6.958c-1.111,0.784-1.293,1.002-1.516,1.057
		c-61.1,15.072-122.21,30.104-183.291,45.255c-4.095,1.016-6.205-0.149-8.304-3.74C304.763,200.536,249.078,105.57,193.493,10.546
		C189.356,3.474,183.874-0.031,175.414,0C123.042,0.192,70.669,0.075,18.296,0.11C2.181,0.121-4.364,10.534,3.026,24.716
		c58.537,112.328,117.138,224.623,175.757,336.908c5.157,9.879,10.396,12.18,21.305,9.522
		c47.187-11.497,94.388-22.941,141.499-34.74c2.149-0.538,3.86-0.722,5.322-0.463l40.401-10.687
		C446.503,310.709,505.719,296.255,564.877,281.567z M527.717,162.495c-0.235-0.343-0.128-0.919-0.269-2.172
		c11.387-1.701,22.796-3.43,34.213-5.104c10.048-1.473,20.08-3.145,30.178-4.143c2.644-0.261,6.686,0.796,8.085,2.71
		c17.979,24.592,35.594,49.449,54.063,75.305c-22.534,5.569-44.135,10.985-65.808,16.096c-1.521,0.359-4.289-1.036-5.272-2.453
		C564.394,216.069,546.061,189.278,527.717,162.495z M281.117,320.576c-24.782,6.088-49.583,12.107-74.313,18.401
		c-4.135,1.052-6.216,0.254-8.212-3.58C146.299,234.926,93.892,134.514,41.515,34.086c-0.541-1.038-0.947-2.147-1.843-4.201
		c42.989,0,84.677-0.101,126.36,0.251c2.493,0.021,5.812,3.157,7.308,5.693c39.547,67.056,78.903,134.224,118.295,201.372
		c12.294,20.957,24.605,41.905,36.888,62.868c1.353,2.309,2.57,4.698,4.298,7.871C315.109,312.267,298.108,316.402,281.117,320.576z
		"/>
	<path fill="#2bb1a8" d="M352.7,340.967c24.24,41.836,48.768,83.506,73.263,125.195c6.094,10.371,11.573,12.392,22.931,8.608
		c71.701-23.886,143.397-47.784,215.081-71.717c15.965-5.33,19.047-14.39,9.634-28.106c-21.758-31.701-43.557-63.374-65.333-95.063
		c-1.49-2.169-2.924-4.376-4.775-7.152c2.475-0.79,4.034-1.389,5.643-1.786c7.903-1.954,15.809-3.895,23.714-5.838l-0.005-0.002
		l-65.022,15.929c3.519-0.334,5.932,0.843,8.526,4.699c19.659,29.224,39.751,58.156,59.688,87.193c1.377,2.005,2.665,4.07,4.3,6.575
		c-64.445,21.483-128.348,42.784-192.924,64.311c-22.629-38.558-45.177-76.977-68.117-116.064c3.006-0.944,5.47-1.868,8.007-2.491
		l-40.401,10.687C349.232,336.355,350.919,337.893,352.7,340.967z"/>
</g>
</svg>
