<?xml version="1.0" encoding="utf-8"?>
<!-- Generator: Adobe Illustrator 17.0.0, SVG Export Plug-In . SVG Version: 6.00 Build 0)  -->
<!DOCTYPE svg PUBLIC "-//W3C//DTD SVG 1.1//EN" "http://www.w3.org/Graphics/SVG/1.1/DTD/svg11.dtd">
<svg version="1.1" id="Layer_1" xmlns="http://www.w3.org/2000/svg" xmlns:xlink="http://www.w3.org/1999/xlink" x="0px" y="0px"
	 width="453.513px" height="476.54px" viewBox="0 0 453.513 476.54" enable-background="new 0 0 453.513 476.54"
	 xml:space="preserve">
<g>
	<path fill="#FFFFFF" d="M217.303,0.009c0,2.224,0,3.788,0,5.352c0,73.028-0.045,146.057,0.111,219.085
		c0.009,4.44-1.282,5.299-5.442,5.29c-60.594-0.133-121.189-0.091-181.784-0.091c-7.549,0-7.464-0.01-8.387-7.594
		c-1.771-14.547-4.107-29.009-6.485-43.47c-2.179-13.247-3.795-26.585-5.805-39.862c-2.076-13.715-4.63-27.364-6.38-41.118
		C2.212,90.394,0.963,83.24,0.065,76.034c-0.338-2.715,0.616-4.052,3.305-4.942c51.326-16.977,102.621-34.046,153.92-51.103
		C177.09,13.406,196.884,6.807,217.303,0.009z M204.08,118.215c0-31.316,0.002-62.632-0.002-93.948
		c-0.001-5.735-0.016-5.739-5.345-3.964c-33.949,11.31-67.899,22.619-101.845,33.936c-26.204,8.736-52.4,17.5-78.616,26.2
		c-2.371,0.787-3.948,1.181-3.257,4.655c1.704,8.564,2.677,17.274,3.936,25.927c2.609,17.925,5.143,35.862,7.842,53.774
		c2.326,15.438,5.131,30.811,7.081,46.294c0.559,4.435,1.888,5.415,5.988,5.407c53.032-0.109,106.065-0.124,159.097,0.026
		c4.241,0.012,5.235-1.203,5.213-5.304C204.003,180.217,204.08,149.216,204.08,118.215z"/>
	<path fill="#2bb1a8" d="M236.191,0c21.763,7.257,43.004,14.35,64.253,21.422c49.689,16.539,99.368,33.11,149.103,49.512
		c3.35,1.105,4.331,2.787,3.854,5.903c-1.376,8.995-2.754,17.989-4.135,26.983c-1.451,9.45-2.952,18.892-4.348,28.35
		c-1.375,9.316-2.584,18.657-3.98,27.971c-1.439,9.602-3.074,19.174-4.519,28.775c-1.951,12.969-3.833,25.949-5.657,38.937
		c-0.207,1.475-0.869,1.825-2.124,1.787c-0.786-0.024-1.574,0.003-2.361,0.003c-61.854,0-123.709-0.036-185.563,0.09
		c-3.774,0.008-4.608-1.047-4.603-4.681c0.107-73.501,0.08-147.002,0.08-220.504C236.191,3.18,236.191,1.81,236.191,0z
		 M249.413,117.736c0,31.006,0.095,62.013-0.106,93.018c-0.029,4.502,1.077,5.789,5.684,5.774
		c52.726-0.166,105.452-0.106,158.179-0.106c0.944,0,1.89-0.041,2.833-0.004c2.419,0.095,3.126-1.193,3.443-3.451
		c2.476-17.638,5.027-35.266,7.662-52.881c3.698-24.72,7.369-49.446,11.377-74.116c0.558-3.436-0.042-4.517-3.19-5.562
		c-60.354-20.029-120.681-40.137-180.971-60.36c-4.182-1.403-5.005-0.434-4.986,3.724
		C249.476,55.094,249.413,86.415,249.413,117.736z"/>
	<path fill="#FFFFFF" d="M217.129,476.28c-13.534-7.016-26.537-13.699-39.487-20.485c-10.929-5.727-21.777-11.609-32.695-17.359
		c-24.562-12.935-49.153-25.813-73.713-38.751c-7.088-3.734-13.906-8.067-21.234-11.23c-5.019-2.166-3.868-6.413-4.409-9.731
		c-1.982-12.17-3.582-24.4-5.686-36.563c-1.973-11.405-3.19-22.939-4.9-34.392c-1.708-11.432-3.644-22.831-5.424-34.252
		c-1.07-6.863-1.996-13.748-3.061-20.611c-0.536-3.457,0.632-4.47,4.265-4.462c60.754,0.125,121.509,0.11,182.264,0.029
		c3.057-0.004,4.342,0.423,4.336,3.976c-0.11,73.661-0.083,147.322-0.089,220.984C217.296,474.207,217.208,474.982,217.129,476.28z
		 M203.42,453.877c1.087-1.299,0.636-2.597,0.637-3.776c0.026-61.185-0.017-122.37,0.114-183.554
		c0.009-4.086-1.333-4.877-5.102-4.869c-50.804,0.115-101.607,0.077-152.411,0.078c-0.786,0-1.574,0.037-2.359,0.001
		c-2.054-0.094-2.817,0.799-2.505,2.867c2.236,14.825,4.402,29.661,6.639,44.487c3.075,20.383,6.061,40.782,9.426,61.118
		c0.545,3.293-0.421,7.24,4.187,9.596c27.551,14.091,54.92,28.54,82.33,42.906c7.092,3.717,14.091,7.613,21.177,11.343
		C178.16,440.711,190.801,447.283,203.42,453.877z"/>
	<path fill="#FFFFFF" d="M236.19,476.54c0-2.335,0-3.745,0-5.155c0-72.56,0.047-145.119-0.114-217.679
		c-0.01-4.495,1.365-5.27,5.471-5.261c60.125,0.127,120.25,0.087,180.376,0.088c5.22,0,5.949,0.934,4.916,5.933
		c-2.467,11.943-3.771,24.066-5.582,36.112c-1.993,13.258-4.329,26.464-6.354,39.717c-1.469,9.617-2.642,19.279-4.01,28.912
		c-1.215,8.552-2.567,17.085-3.742,25.643c-0.24,1.751-1.387,2.195-2.651,2.862c-11.594,6.119-23.144,12.32-34.742,18.432
		c-24.559,12.941-49.142,25.835-73.708,38.761c-17.332,9.12-34.655,18.258-51.978,27.395
		C241.666,473.568,239.28,474.876,236.19,476.54z M249.412,454.412c8.222-4.445,15.616-8.527,23.085-12.466
		c25.393-13.39,50.797-26.76,76.229-40.077c14.454-7.569,28.969-15.023,43.463-22.516c1.438-0.743,2.438-1.516,2.714-3.427
		c2.398-16.617,5.001-33.204,7.45-49.814c2.926-19.847,5.493-39.753,8.829-59.53c0.775-4.595-0.308-4.886-4.091-4.88
		c-50.816,0.081-101.633,0.12-152.448-0.059c-4.532-0.016-5.323,1.437-5.314,5.552c0.121,60.728,0.084,121.455,0.083,182.183
		C249.412,450.783,249.412,452.189,249.412,454.412z"/>
</g>
</svg>
