<?xml version="1.0" encoding="utf-8"?>
<!-- Generator: Adobe Illustrator 17.0.0, SVG Export Plug-In . SVG Version: 6.00 Build 0)  -->
<!DOCTYPE svg PUBLIC "-//W3C//DTD SVG 1.1//EN" "http://www.w3.org/Graphics/SVG/1.1/DTD/svg11.dtd">
<svg version="1.1" id="Capa_1" xmlns="http://www.w3.org/2000/svg" xmlns:xlink="http://www.w3.org/1999/xlink" x="0px" y="0px"
	 width="495.997px" height="497.119px" viewBox="268.171 225.344 495.997 497.119"
	 enable-background="new 268.171 225.344 495.997 497.119" xml:space="preserve">
<g>
	<path fill="#FFFFFF" d="M371.864,434.476c-19.055-74.985-4.309-139.296,62.395-183.221c54.301-35.757,111.519-33.729,166.432,1.28
		c29.969,19.106,49.929,46.734,60.452,80.714c10.405,33.598,9.427,67.265-1.639,101.231c7.369,0,14.306,0.003,21.243-0.001
		c14.495-0.007,28.991-0.089,43.486-0.01c22,0.12,39.848,17.738,39.876,39.696c0.088,69.479,0.076,138.958-0.018,208.437
		c-0.03,22.473-17.854,39.823-40.7,39.829c-123.629,0.031-247.259,0.017-370.888,0.018c-14.496,0-28.991,0.034-43.487-0.012
		c-23.361-0.074-40.802-17.43-40.815-40.743c-0.039-68.979-0.034-137.959-0.004-206.938c0.01-22.535,17.794-40.256,40.294-40.273
		c19.827-0.015,39.654-0.005,59.481-0.007C369.433,434.476,370.896,434.476,371.864,434.476z M380.184,380.626
		c-0.189,28.081,6.095,52.21,21.315,75.746c35.794,55.352,71.992,110.441,108.078,165.604c4.06,6.206,9.328,5.833,13.675-0.811
		c35.36-54.05,70.74-108.087,106.034-162.179c22.002-33.72,27.869-70.632,19.566-109.549
		c-16.298-76.398-94.624-123.161-169.663-101.796C419.983,264.497,379.258,318.902,380.184,380.626z M667.908,690.143
		c-101.354,0-202.383,0-303.371,0c0-74.708,0-149.078,0-223.975c8.07,0,15.751,0,23.787,0c-2.705-4.926-5.041-9.318-7.54-13.615
		c-0.503-0.865-1.616-1.943-2.461-1.955c-9.929-0.136-19.861-0.087-29.762-0.087c0,85.672,0,170.701,0,255.678
		c111.962,0,223.538,0,335.258,0c0-85.292,0-170.326,0-255.701c-9.946,0-19.582-0.042-29.217,0.066
		c-0.945,0.01-2.289,0.694-2.75,1.476c-2.672,4.53-5.134,9.183-8.026,14.445c8.395,0,16.117,0,24.082,0
		C667.908,541.21,667.908,615.462,667.908,690.143z M331.974,450.513c-8.191,0-15.844-0.091-23.495,0.02
		c-14.055,0.203-24.214,10.299-24.231,24.448c-0.083,69.153-0.085,138.306-0.03,207.458c0.009,11.828,8.152,22.091,19.802,23.452
		c9.136,1.068,18.497,0.214,27.954,0.214C331.974,620.899,331.974,535.985,331.974,450.513z M700.475,450.527
		c0,85.559,0,170.597,0,255.921c7.32,0,14.299,0.007,21.277-0.001c16.532-0.02,26.365-9.873,26.369-26.456
		c0.009-30.661-0.002-61.323-0.002-91.984c0-37.494,0.044-74.988-0.018-112.481c-0.023-13.837-9.578-24.385-22.746-24.935
		C717.215,450.25,709.048,450.527,700.475,450.527z M460.325,674.244c0-16.161,0-31.759,0-47.854c10.912,0,21.457,0,32.986,0
		c-21.742-33.241-42.954-65.671-64.166-98.101c-0.356,0.146-0.711,0.292-1.067,0.438c0,21.75,0,43.501,0,65.809
		c-16.105,0-31.826,0-47.528,0c0,10.949,0,21.331,0,32.074c15.976,0,31.577,0,47.716,0c0,16.08,0,31.802,0,47.635
		C439.075,674.244,449.338,674.244,460.325,674.244z M652.009,594.3c-16.194,0-31.912,0-48.195,0c0-22.283,0-44.043,0-67.048
		c-21.969,33.615-43.188,66.082-64.989,99.439c11.886,0,22.471,0,33.569,0c0,16.136,0,31.854,0,47.465c10.789,0,21.048,0,31.871,0
		c0-16.001,0-31.716,0-47.987c16.277,0,31.989,0,47.744,0C652.009,615.459,652.009,605.319,652.009,594.3z M412.151,578.234
		c0-25.027,0.022-49.471-0.058-73.915c-0.005-1.381-0.598-2.915-1.344-4.112c-3.163-5.077-6.423-10.098-9.804-15.032
		c-0.759-1.108-2.119-2.487-3.256-2.538c-5.74-0.258-11.498-0.119-17.147-0.119c0,32.312,0,63.978,0,95.715
		C391.161,578.234,401.408,578.234,412.151,578.234z M651.924,482.821c-17.85-1.63-17.85-1.63-27.181,12.485
		c-0.826,1.25-1.889,2.404-2.436,3.765c-0.897,2.231-2.058,4.592-2.074,6.905c-0.153,22.494-0.091,44.99-0.091,67.485
		c0,1.584,0,3.168,0,4.729c11.049,0,21.311,0,31.781,0C651.924,546.322,651.924,514.727,651.924,482.821z M555.863,674.243
		c0-10.818,0-21.068,0-31.46c-26.631,0-52.974,0-79.336,0c0,10.7,0,21.068,0,31.46C503.127,674.243,529.359,674.243,555.863,674.243
		z M380.477,642.551c0,10.797,0,21.166,0,31.552c10.679,0,21.049,0,31.296,0c0-10.725,0-21.096,0-31.552
		C401.245,642.551,391.112,642.551,380.477,642.551z M651.831,674.356c0-10.796,0-21.166,0-31.551c-10.679,0-21.049,0-31.297,0
		c0,10.724,0,21.096,0,31.551C631.061,674.356,641.195,674.356,651.831,674.356z"/>
	<path fill="#FFFFFF" d="M347.953,290.354c0,5.788,0,10.732,0,15.937c-15.023,0.776-27.603,6.419-37.043,18.076
		c-7.504,9.267-11.069,19.968-10.697,31.968c0.655,21.099,16.839,44.653,47.658,46.385c0,5.048,0,10.122,0,15.853
		c-22.216-0.855-40.062-9.79-52.377-28.094c-14.458-21.49-15.64-44.418-3.035-67.064
		C304.302,302.138,323.247,291.571,347.953,290.354z"/>
	<path fill="#FFFFFF" d="M684.347,418.593c0-5.516,0-10.454,0-15.842c15.697-0.925,28.901-7.005,38.411-19.855
		c6.886-9.304,9.945-19.867,9.298-31.436c-1.366-24.456-19.055-41.344-47.675-45.363c0-5.032,0-10.104,0-15.725
		c23.176,1.039,41.509,10.51,53.62,29.947c14.143,22.699,14.078,46.215-0.312,68.809
		C725.499,408.267,707.31,417.608,684.347,418.593z"/>
	<path fill="#FFFFFF" d="M347.972,322.66c0,5.22,0,10.163,0,13.713c-4.836,3.456-9.559,5.889-12.907,9.573
		c-2.044,2.249-2.736,6.428-2.7,9.726c0.086,7.867,5.841,13.153,15.811,15.122c0,2.491,0,5.096,0,7.701c0,2.472,0,4.944,0,7.358
		c-14.866,2.068-30.64-12.217-31.914-28.544C314.805,338.653,329.001,322.845,347.972,322.66z"/>
	<path fill="#FFFFFF" d="M684.354,338.16c0-5.374,0-10.327,0-15.254c16.049-1.159,31.147,13.283,31.752,30.115
		c0.652,18.131-13.39,33.133-31.584,33.303c0-5.029,0-10.079,0-13.975c4.534-3.131,9.197-5.413,12.488-8.965
		c2.089-2.254,2.902-6.388,2.948-9.698C700.068,345.691,694.351,340.318,684.354,338.16z"/>
	<path fill="#2bb1a8" d="M636.142,378.42c0.396,64.786-53.422,119.706-117.671,120.08c-66.844,0.389-121.983-52.551-122.32-117.44
		c-0.352-67.843,52.532-122.221,119.187-122.554C581.932,258.172,635.733,311.578,636.142,378.42z M514.689,274.588
		c0.498,11.382,1.223,22.429,1.403,33.485c0.218,13.372-5.88,21.869-18.602,26.355c-3.65,1.287-5.228,3.304-5.437,7.249
		c-0.786,14.838-12.13,26.899-26.579,28.66c-14.947,1.821-28.86-7.457-33.169-22.182c-0.84-2.87-1.107-5.952-2.256-8.676
		c-1.278-3.028-3.262-5.759-5.571-9.696c-9.607,18.779-13.52,36.905-11.885,56.172c28.285,4.441,36.139,11.319,44.881,38.976
		c1.692,5.354,6.626,9.192,12.243,9.525c5.778,0.342,11.414-3.038,13.318-8.576c0.892-2.594,1.018-5.529,1.08-8.319
		c0.433-19.462,19.078-34.435,38.049-30.467c16.358,3.421,25.857,16.041,26.046,34.099c0.071,6.784-0.706,14.15,1.621,20.206
		c3.824,9.953,9.862,19.055,14.932,28.452c14.298-6.376,34.087-24.998,37.725-35.154c-0.496-0.065-0.984-0.167-1.474-0.187
		c-21.749-0.911-35.84-14.886-36.874-36.624c-0.265-5.565-2.215-10.336-6.213-14.274c-2.609-2.57-5.198-5.169-7.656-7.882
		c-23.259-25.675-24.309-62.671-2.579-89.563c1.303-1.612,2.578-3.247,4.098-5.164C538.904,276.543,526.458,274.085,514.689,274.588
		z M567.3,288.3c-7.07,7.015-13.158,14.456-16.156,23.881c-6.945,21.836-1.892,40.788,14.629,56.47
		c9.024,8.566,14.385,18.35,14.563,31.088c0.139,9.953,8.811,18.099,18.77,18.659c2.99,0.168,6.022-0.175,8.987,0.15
		c3.317,0.363,4.584-1.194,5.669-4.057C631.483,367.735,611.444,312.744,567.3,288.3z M550.06,476.024
		c-3.951-6.945-7.864-13.877-11.831-20.778c-4.16-7.238-6.235-14.99-6.094-23.356c0.081-4.827,0.209-9.668-0.063-14.482
		c-0.473-8.393-7.537-14.877-15.865-14.881c-8.411-0.004-15.317,6.365-15.966,14.777c-0.128,1.657-0.035,3.33-0.112,4.992
		c-0.71,15.215-13.24,27.622-28.435,28.173c-15.041,0.545-27.305-9.426-30.474-24.777c-2.814-13.633-14.302-23.66-25.621-22.364
		C430.694,466.814,499.459,496.634,550.06,476.024z M496.728,276.245c-26.802,6.098-47.924,19.15-63.862,40.484
		c10.538,10.489,10.541,10.497,14.425,25.391c0.209,0.803,0.458,1.598,0.735,2.381c2.349,6.629,8.357,10.586,15.015,9.902
		c6.941-0.713,12.615-5.947,12.938-13.025c0.529-11.604,5.995-18.949,17.099-22.314c4.416-1.338,6.968-4.505,7.036-9.22
		c0.096-6.652,0.387-13.34-0.162-19.949C499.579,285.409,497.907,281.03,496.728,276.245z"/>
	<path fill="#FFFFFF" d="M491.819,546.257c-5.285,0-10.213,0-15.412,0c0-5.143,0-10.068,0-15.406c4.96,0,10.007,0,15.412,0
		C491.819,535.779,491.819,540.823,491.819,546.257z"/>
	<path fill="#FFFFFF" d="M523.979,530.863c0,5.115,0,10.038,0,15.298c-5.191,0-10.233,0-15.559,0c0-5.028,0-9.957,0-15.298
		C513.312,530.863,518.361,530.863,523.979,530.863z"/>
	<path fill="#FFFFFF" d="M555.804,546.27c-5.267,0-10.188,0-15.394,0c0-5.141,0-10.064,0-15.41c4.924,0,9.967,0,15.394,0
		C555.804,535.749,555.804,540.79,555.804,546.27z"/>
	<path fill="#FFFFFF" d="M316.006,554.831c0,15.904,0,31.49,0,47.361c-5.251,0-10.299,0-15.602,0c0-15.801,0-31.383,0-47.361
		C305.429,554.831,310.478,554.831,316.006,554.831z"/>
	<path fill="#FFFFFF" d="M731.802,610.251c-5.293,0-10.223,0-15.426,0c0-21.151,0-42.065,0-63.382c4.955,0,10.009,0,15.426,0
		C731.802,567.754,731.802,588.788,731.802,610.251z"/>
	<path fill="#FFFFFF" d="M716.307,530.25c0-5.286,0-10.206,0-15.468c5.179,0,10.217,0,15.555,0c0,5.139,0,10.177,0,15.468
		C726.715,530.25,721.795,530.25,716.307,530.25z"/>
	<path fill="#FFFFFF" d="M716.412,626.706c5.113,0,10.042,0,15.345,0c0,4.975,0,10.024,0,15.415c-4.968,0-10.012,0-15.345,0
		C716.412,637.044,716.412,632,716.412,626.706z"/>
</g>
</svg>
