<?xml version="1.0" encoding="utf-8"?>
<!-- Generator: Adobe Illustrator 17.0.0, SVG Export Plug-In . SVG Version: 6.00 Build 0)  -->
<!DOCTYPE svg PUBLIC "-//W3C//DTD SVG 1.1//EN" "http://www.w3.org/Graphics/SVG/1.1/DTD/svg11.dtd">
<svg version="1.1" id="Layer_1" xmlns="http://www.w3.org/2000/svg" xmlns:xlink="http://www.w3.org/1999/xlink" x="0px" y="0px"
	 width="432.439px" height="476.537px" viewBox="0 0 432.439 476.537" enable-background="new 0 0 432.439 476.537"
	 xml:space="preserve">
<g>
	<path fill="#FFFFFF" d="M196.709,5.084c11.816-6.763,27.206-6.794,39.012,0c59.394,33.561,118.807,67.069,178.19,100.65
		c11.169,6.292,18.641,18.722,18.527,31.592V339.24c0.083,13.403-8.126,26.13-19.91,32.279
		c-59.199,33.376-118.367,66.792-177.556,100.168c-12.06,6.896-27.76,6.365-39.443-1.096
		c-17.748-10.289-35.526-20.526-53.276-30.804c-3.627-2.162-7.716-3.883-10.277-7.4c2.264-3.052,6.312-3.432,9.601-4.764
		c7.408-2.356,14.212-6.137,21.018-9.806c1.721-1.178,3.822-0.726,5.472,0.328c15.176,8.702,30.219,17.656,45.446,26.275
		c3.248,1.875,6.538-0.614,9.314-2.162c58.092-32.833,116.256-65.541,174.338-98.384c2.152-1.035,3.342-3.32,3.167-5.677
		c0.041-66.607,0.01-133.226,0.02-199.833c0.246-2.675-1.302-5.134-3.72-6.229c-58.993-33.223-117.956-66.497-176.94-99.728
		c-2.092-1.438-4.852-1.442-6.948-0.01C153.762,65.636,94.81,98.94,35.826,132.161c-2.41,1.096-4.027,3.515-3.741,6.2
		c0.01,66.607,0,133.226,0,199.844c-0.209,2.356,1.071,4.593,3.208,5.606c15.74,8.926,31.5,17.789,47.25,26.684
		c8.873,4.776,19.767,7.614,29.543,3.955c8.627-3.094,14.674-11.897,14.509-21.057c0.081-66.218-0.041-132.447,0.061-198.655
		c-0.216-2.94,2.573-5.368,5.431-5.092c7.563-0.051,15.136-0.102,22.699,0.02c3.157-0.071,5.329,3.094,4.939,6.056
		c-0.031,66.638,0.081,133.277-0.051,199.915c0.02,17.76-7.276,37.084-23.703,45.774c-20.238,10.484-45.251,8.26-65.244-1.792
		c-17.308-8.639-33.825-18.834-50.826-28.089c-11.814-6.115-19.983-18.893-19.9-32.286V137.326
		c-0.124-13.136,7.644-25.793,19.162-31.992C78.352,71.93,137.53,38.502,196.709,5.084z"/>
	<path fill="#2bb1a8" d="M248.345,144.951c25.815-1.662,53.45-0.984,76.68,11.733c17.985,9.745,27.957,30.199,28.274,50.18
		c-0.502,2.695-3.32,4.182-5.893,3.997c-7.49-0.01-14.981,0.102-22.471-0.051c-3.177,0.122-5.024-2.807-5.423-5.616
		c-2.152-9.56-7.366-19.029-16.365-23.64c-13.814-6.916-29.83-6.568-44.893-6.424c-10.996,0.584-22.821,1.536-32.137,8.002
		c-7.152,4.898-9.325,14.786-6.772,22.749c2.407,5.718,9.007,7.563,14.408,9.263c31.11,8.136,64.077,7.327,94.593,18.035
		c12.634,4.365,24.993,12.851,29.318,26.079c5.657,17.729,3.177,38.921-9.436,53.153c-10.229,11.712-25.127,18.087-39.986,21.55
		c-19.767,4.408-40.282,4.52-60.356,2.563c-18.876-2.152-38.52-7.111-53.092-19.973c-12.461-10.82-18.547-27.678-17.943-43.949
		c0.144-2.748,2.88-4.664,5.513-4.438c7.542-0.061,15.085-0.081,22.627,0.01c3.013-0.216,5.246,2.388,5.401,5.227
		c1.392,9.109,4.815,18.669,12.758,24.07c15.329,9.89,34.564,9.212,52.116,9.489c14.542-0.645,30.866-0.84,42.732-10.451
		c6.261-5.482,8.116-14.654,6.424-22.544c-1.833-6.662-8.802-9.766-14.786-11.796c-30.711-9.715-64.046-6.19-94.46-17.176
		c-12.347-4.364-24.287-12.614-29.031-25.299c-6.619-17.953-3.586-40.159,10.35-53.912c13.588-13.68,33.203-18.948,51.852-20.833
		L248.345,144.951z"/>
</g>
</svg>
