<?xml version="1.0" encoding="utf-8"?>
<!-- Generator: Adobe Illustrator 17.0.0, SVG Export Plug-In . SVG Version: 6.00 Build 0)  -->
<!DOCTYPE svg PUBLIC "-//W3C//DTD SVG 1.1//EN" "http://www.w3.org/Graphics/SVG/1.1/DTD/svg11.dtd">
<svg version="1.1" id="Layer_1" xmlns="http://www.w3.org/2000/svg" xmlns:xlink="http://www.w3.org/1999/xlink" x="0px" y="0px"
	 width="1000.146px" height="476.537px" viewBox="0 0 1000.146 476.537" enable-background="new 0 0 1000.146 476.537"
	 xml:space="preserve">
<g>
	<path fill="#FFFFFF" d="M723.652,476.54c-27.849,0-54.693,0-82.132,0c24.425-125.659,48.734-250.72,73.082-375.979
		c1.907-0.257,3.503-0.659,5.099-0.66c54.269-0.002,108.551-0.587,162.801,0.439c16.523,0.313,33.525,3.263,49.33,8.16
		c42.896,13.29,67.874,47.408,68.303,93.265c0.535,57.2-20.298,105.042-65.614,141.339c-29.363,23.52-63.77,31.767-100.236,32.999
		c-27.271,0.921-54.593,0.579-81.888,0.359c-6.635-0.054-9.694,1.224-11.01,8.627C735.989,415.463,729.717,445.682,723.652,476.54z
		 M785.709,157.563c-10.571,54.5-20.661,106.52-31.207,160.89c29.492-1.393,57.435-1.272,85.007-4.41
		c28.917-3.292,50.707-18.732,62.414-46.434c7.881-18.648,12.349-38.028,12.245-58.338c-0.14-27.231-10.247-42.196-37.263-45.942
		C847.176,159.206,816.857,159.343,785.709,157.563z"/>
	<path fill="#FFFFFF" d="M73.157,99.86c13.544,0,26.332-0.003,39.12,0.001c41.111,0.012,82.232-0.509,123.327,0.313
		c15.637,0.313,31.576,2.236,46.745,5.985c44.498,10.996,71.224,40.742,75.281,86.45c8.165,91.991-53.03,160.863-117.864,176.686
		c-16.163,3.944-33.032,6.024-49.673,6.75c-26.593,1.159-53.267,0.634-79.904,0.435c-6.273-0.047-9.057,1.357-10.294,8.236
		c-5.46,30.378-11.696,60.617-17.788,91.605c-27.094,0-54.206,0-82.108,0C24.381,350.859,48.717,225.624,73.157,99.86z
		 M112.913,318.275c28.852-1.199,56.157-0.907,83.113-3.838c29.597-3.218,52.322-18.322,64.347-46.875
		c8.124-19.29,12.608-39.332,12.174-60.337c-0.513-24.896-10.79-40.193-35.406-43.536c-30.633-4.16-61.815-4.28-92.999-6.16
		C133.556,212.016,123.491,263.826,112.913,318.275z"/>
	<path fill="#2bb1a8" d="M543.403,376.601c4.792-24.918,9.385-48.696,13.934-72.482c6.6-34.514,13.618-68.955,19.598-103.576
		c4.377-25.339-5.382-37.889-31.165-39.023c-26.228-1.154-52.547-0.255-80.299-0.255c-13.864,71.174-27.774,142.585-41.811,214.645
		c-26.852,0-53.629,0-81.49,0C366.546,250.457,390.828,125.493,415.213,0c27.194,0,53.988,0,81.471,0
		c-6.413,33.277-12.74,66.102-19.246,99.86c22.13,0,43.499-0.744,64.792,0.208c21.587,0.965,43.549,1.487,64.55,5.953
		c44.383,9.44,63.065,38.274,55.115,83.614c-9.018,51.426-19.458,102.604-29.294,153.886c-1.361,7.095-3.733,14.14-3.994,21.268
		c-0.396,10.823-6.005,12.239-15.244,12.003C590.429,376.209,567.469,376.601,543.403,376.601z"/>
</g>
</svg>
