<?xml version="1.0" encoding="utf-8"?>
<!-- Generator: Adobe Illustrator 17.0.0, SVG Export Plug-In . SVG Version: 6.00 Build 0)  -->
<!DOCTYPE svg PUBLIC "-//W3C//DTD SVG 1.1//EN" "http://www.w3.org/Graphics/SVG/1.1/DTD/svg11.dtd">
<svg version="1.1" id="Layer_1" xmlns="http://www.w3.org/2000/svg" xmlns:xlink="http://www.w3.org/1999/xlink" x="0px" y="0px"
	 width="474.04px" height="476.537px" viewBox="0 0 474.04 476.537" enable-background="new 0 0 474.04 476.537"
	 xml:space="preserve">
<g>
	<path fill="#FFFFFF" d="M217.542,112.414c0-4.269,0-7.716,0-11.965c-2.126,0-4.037,0-5.949,0c-28.828,0-57.656,0.011-86.484-0.008
		c-9.076-0.006-12.521-3.294-12.526-12.265c-0.005-9.328-0.04-18.671,0.439-27.982c1.342-26.093,13.071-41.474,37.842-49.965
		c17.641-6.046,35.989-8.246,54.462-9.367c27.025-1.641,54.111-1.374,80.568,4.655c28.548,6.505,48.853,22.908,55.576,52.854
		c0.939,4.185,1.18,8.598,1.193,12.907c0.096,31.827,0.16,63.655,0.023,95.482c-0.138,32.049-18.643,56.493-48.523,63.904
		c-5.578,1.383-11.526,1.737-17.307,1.764c-33.326,0.16-66.654-0.001-99.981,0.104c-27.2,0.085-50.284,18.056-56.11,43.732
		c-1.058,4.662-1.347,9.572-1.405,14.375c-0.177,14.662-0.01,29.327-0.093,43.991c-0.042,7.433-3.574,11.145-11.014,11.247
		c-11.828,0.163-23.671,0.322-35.489-0.063c-30.096-0.98-49.55-17.249-59.576-44.485C0.304,266.336-3.705,230.151,3.682,193.262
		c2.31-11.537,4.529-23.39,9.084-34.124c13.229-31.176,37.994-46.292,71.465-46.621c42.321-0.416,84.65-0.102,126.975-0.102
		C213.179,112.414,215.151,112.414,217.542,112.414z M131.646,80.449c3.331,0,5.141,0,6.952,0c28.991,0,57.982-0.02,86.974,0.015
		c8.167,0.01,12.548,4.424,12.446,12.225c-0.113,8.66-0.192,17.32-0.238,25.98c-0.057,10.663-3.084,13.743-13.655,13.744
		c-46.819,0.005-93.638-0.081-140.457,0.037c-27.899,0.07-48.377,15.826-55.643,42.657c-7.707,28.458-10.87,57.207-4.838,86.453
		c2.855,13.84,5.044,27.892,12.012,40.494c8.584,15.525,21.198,24.41,39.56,23.915c8.064-0.217,16.139-0.037,24.536-0.037
		c0-12.042-0.005-23.188,0.001-34.335c0.026-45.15,33.87-79.06,78.96-79.087c32.823-0.02,65.647,0.016,98.47-0.032
		c3.82-0.006,7.717,0.027,11.445-0.67c20.298-3.797,34.293-21.217,34.469-43.552c0.258-32.821,0.044-65.646,0.075-98.469
		c0.011-12.39-4.713-22.594-13.751-30.973c-8.436-7.821-18.35-12.562-29.626-14.454c-30.271-5.078-60.669-5.675-91.101-1.849
		c-13.202,1.66-26.372,3.809-38.522,9.805c-7.021,3.465-13.087,8.391-14.547,16.146C133.22,58.798,132.785,69.418,131.646,80.449z"
		/>
	<path fill="#FFFFFF" d="M256.237,361.86c0,4.384,0,8.131,0,12.42c2.025,0,3.808,0,5.59,0c28.828,0,57.656-0.01,86.484,0.006
		c8.979,0.005,12.8,3.869,12.735,12.746c-0.04,5.498-0.042,10.997-0.099,16.495c-0.215,20.848-8.99,37.226-25.992,49.153
		c-15.875,11.137-34.05,16.48-52.774,20.125c-38.711,7.535-76.309,3.834-112.235-12.687c-18.094-8.321-31.908-21.212-37.14-41.276
		c-1.325-5.083-1.813-10.511-1.839-15.785c-0.163-31.993-0.168-63.988-0.058-95.982c0.131-37.914,27.828-65.383,65.854-65.431
		c32.827-0.042,65.682-0.842,98.474,0.227c32.286,1.052,60.276-27.558,58.917-59.187c-0.6-13.972-0.122-27.991-0.093-41.988
		c0.018-8.615,3.591-12.355,12.064-12.282c15.149,0.129,30.38-0.472,45.425,0.895c18.657,1.695,32.316,12.13,41.768,28.223
		c8.928,15.201,12.806,32.054,16.211,49.046c6.282,31.345,6.783,62.552-3.534,93.237c-3.227,9.597-6.874,19.12-11.197,28.267
		c-10.816,22.881-28.884,34.096-54.537,33.884c-45.655-0.377-91.316-0.105-136.974-0.105
		C261.13,361.86,258.972,361.86,256.237,361.86z M374.051,148.551c0,11.106-0.268,21.75,0.047,32.376
		c1.325,44.807-34.886,82.161-80.927,80.885c-32.464-0.9-64.973-0.236-97.462-0.153c-26.268,0.067-44.687,18.359-44.789,44.594
		c-0.126,32.655,0.112,65.312-0.108,97.966c-0.078,11.517,4.005,20.916,12.812,27.982c5.146,4.129,10.699,8.153,16.708,10.738
		c33.792,14.537,68.707,17.604,104.537,8.878c14.771-3.597,29.147-8.043,41.493-17.543c13.321-10.25,16.024-24.012,14.138-39.994
		c-5.814,0-11.447,0-17.08,0c-25.158,0-50.316,0.019-75.474-0.013c-7.429-0.009-11.763-3.455-11.878-9.867
		c-0.196-10.992-0.175-21.993,0.01-32.986c0.087-5.144,3.594-8.678,8.676-9.328c1.972-0.252,3.988-0.221,5.985-0.221
		c49.983-0.011,99.968-0.267,149.948,0.134c16.777,0.135,28.46-6.673,35.665-21.483c8.422-17.31,14.462-35.377,16.807-54.585
		c2.748-22.51-0.503-44.491-5.613-66.325c-2.889-12.344-6.087-24.563-13.47-35.194c-6.314-9.092-14.558-15.304-25.893-15.76
		C397.06,148.201,385.905,148.551,374.051,148.551z"/>
	<path fill="#2bb1a8" d="M168.573,32.356c10.707,0.043,20.426,9.931,20.262,20.613c-0.163,10.584-9.654,20.105-20.18,20.242
		c-10.563,0.138-20.478-9.739-20.493-20.414C148.147,41.974,157.795,32.312,168.573,32.356z"/>
	<path fill="#2bb1a8" d="M315.828,421.225c0.185,10.667-9.515,20.572-20.231,20.657c-10.634,0.084-20.451-9.732-20.444-20.442
		c0.007-10.668,9.302-20.108,19.975-20.287C306.027,400.97,315.638,410.29,315.828,421.225z"/>
</g>
</svg>
