<?xml version="1.0" encoding="utf-8"?>
<!-- Generator: Adobe Illustrator 17.0.0, SVG Export Plug-In . SVG Version: 6.00 Build 0)  -->
<!DOCTYPE svg PUBLIC "-//W3C//DTD SVG 1.1//EN" "http://www.w3.org/Graphics/SVG/1.1/DTD/svg11.dtd">
<svg version="1.1" id="Layer_1" xmlns="http://www.w3.org/2000/svg" xmlns:xlink="http://www.w3.org/1999/xlink" x="0px" y="0px"
	 width="534.816px" height="476.537px" viewBox="0 0 534.816 476.537" enable-background="new 0 0 534.816 476.537"
	 xml:space="preserve">
<g>
	<path fill="#FFFFFF" d="M104.424,392.64c-0.237-20.399,2.742-40.437,7.134-60.274c0.785-3.547-0.065-4.628-3.32-5.652
		c-25.398-7.985-49.781-18.205-71.665-33.677c-10.302-7.284-19.714-15.538-26.826-26.097c-13.543-20.108-12.961-40.338,1.668-59.739
		c11.015-14.609,25.574-24.947,41.243-33.876c17.711-10.092,36.551-17.585,55.941-23.729c2.496-0.791,3.265-1.589,2.631-4.46
		c-5.188-23.493-8.437-47.235-7.319-71.36c0.739-15.939,3.271-31.55,10.579-46.035C124.585,7.733,142.446-1.646,165.62,0.882
		c19.606,2.139,36.826,10.501,53.402,20.439c16.451,9.863,31.467,21.688,45.447,34.779c3.361,3.148,4.819,0.434,6.632-1.235
		c13.04-12.007,26.932-22.905,41.929-32.36c15.237-9.606,31.199-17.624,49.062-21.086c12.191-2.363,24.241-2.133,35.676,3.448
		c13.573,6.625,21.021,18.343,25.936,31.979c4.117,11.423,5.883,23.319,6.479,35.413c1.207,24.486-1.762,48.57-7.021,72.422
		c-0.602,2.732-0.057,3.969,2.771,4.867c25.714,8.166,50.449,18.475,72.617,34.178c9.601,6.801,18.424,14.471,25.284,24.142
		c15.07,21.245,14.647,42.117-1.374,62.656c-10.458,13.407-23.891,23.292-38.477,31.716c-18.072,10.438-37.253,18.339-57.136,24.558
		c-2.666,0.834-3.715,1.934-3.076,4.797c4.035,18.075,6.681,36.321,7.305,54.877c0.631,18.764-0.635,37.235-7.34,54.94
		c-6.399,16.898-17.1,29.56-35.68,33.477c-12.229,2.578-24.23,0.741-36-2.949c-22.095-6.927-41.295-19.102-59.54-32.986
		c-7.705-5.863-15.119-12.086-22.159-18.722c-2.115-1.994-3.265-1.715-5.229,0.106c-18.822,17.461-39.09,32.931-62.249,44.294
		c-12.844,6.302-26.248,10.991-40.64,11.808c-23.297,1.323-40.902-10.587-49.838-33.223
		C105.979,426.948,104.168,409.959,104.424,392.64z M267.023,325.278c15.302,0.425,30.553-0.594,45.807-1.543
		c2.343-0.146,4.17-0.807,5.662-3.01c17.24-25.46,32.551-52.01,45.68-79.821c0.978-2.071,0.898-3.764-0.112-5.732
		c-3.214-6.266-6.23-12.633-9.467-18.887c-10.828-20.92-23.098-40.975-36.395-60.41c-0.944-1.38-1.816-2.628-3.838-2.793
		c-15.595-1.274-31.238-1.824-46.857-1.825c-15.499-0.001-31.024,0.527-46.498,1.833c-2.012,0.17-3.304,0.9-4.395,2.512
		c-17.434,25.755-33.042,52.55-46.22,80.742c-0.788,1.685-0.744,3.093,0.044,4.743c13.405,28.078,28.99,54.889,46.63,80.515
		c0.98,1.424,2.07,2.07,3.799,2.164C236.24,324.598,251.607,325.717,267.023,325.278z M510.584,239.082
		c-0.151-5.639-1.875-10.025-4.466-14.134c-4.525-7.176-10.525-12.968-17.209-18.059c-21.098-16.069-45.161-26.077-70.159-34.164
		c-2.079-0.673-2.608,0.131-3.157,1.987c-6.101,20.617-13.507,40.763-22.157,60.446c-0.887,2.018-0.883,3.803,0.006,5.82
		c8.72,19.781,16.331,39.977,22.42,60.728c0.639,2.177,1.457,2.684,3.701,1.93c15.976-5.363,31.699-11.329,46.551-19.363
		c12.657-6.847,24.66-14.65,34.42-25.414C505.82,253.029,510.007,246.571,510.584,239.082z M376.955,24.517
		c-12.322-0.041-22.096,3.449-31.551,7.832c-21.355,9.9-39.792,24.059-57.126,39.77c-3.741,3.391-3.779,3.44-0.38,7.02
		c14.581,15.361,27.898,31.766,40.411,48.836c0.983,1.341,2.004,2.047,3.76,2.245c21.337,2.402,42.529,5.729,63.393,10.855
		c3.117,0.766,3.886-0.14,4.428-2.836c4.577-22.762,7.731-45.651,5.825-68.941c-0.859-10.495-2.741-20.788-7.397-30.415
		C393.634,29.196,386.315,23.948,376.955,24.517z M128.916,392.5c0,4.422-0.278,8.865,0.055,13.262
		c0.813,10.741,2.533,21.305,7.119,31.219c4.679,10.116,12.287,15.563,23.656,15.23c6.623-0.194,13.023-1.604,19.216-3.842
		c26.955-9.741,48.928-27.069,69.868-45.975c1.547-1.396,0.692-2.093-0.267-3.111c-14.921-15.844-28.85-32.516-41.637-50.131
		c-1.276-1.758-2.723-2.817-4.942-3.04c-21.14-2.124-42.042-5.68-62.698-10.652c-2.534-0.61-3.801-0.197-4.375,2.748
		C131.412,356.15,128.436,374.134,128.916,392.5z M24.157,238.892c0.278,4.575,2.152,9.174,4.951,13.421
		c4.661,7.071,10.77,12.756,17.466,17.83c20.843,15.794,44.618,25.563,69.208,33.68c2.37,0.782,2.819-0.192,3.362-2.068
		c6.01-20.773,13.623-40.966,22.254-60.779c0.708-1.626,0.928-2.955,0.153-4.693c-8.8-19.745-16.36-39.961-22.494-60.693
		c-0.772-2.61-1.519-3.42-4.382-2.471c-17.598,5.833-34.809,12.549-50.893,21.861c-11.826,6.847-23.058,14.498-31.79,25.259
		C27.704,225.524,24.47,231.281,24.157,238.892z M406.602,392.531c-0.038-18.086-2.48-35.884-6.394-53.505
		c-1.022-4.601-1.043-4.574-5.657-3.447c-19.589,4.786-39.454,8.057-59.476,10.25c-3.92,0.43-6.165,1.918-8.347,4.929
		c-12.062,16.646-25.091,32.514-39.347,47.335c-2.115,2.199-1.983,3.304,0.217,5.258c11.445,10.162,23.27,19.834,36.165,28.102
		c14.335,9.192,29.219,17.301,46.405,19.711c7.772,1.09,15.575,1.104,22.008-4.671c3.633-3.262,6.065-7.351,7.865-11.818
		C405.493,421.142,406.677,406.935,406.602,392.531z M159.016,24.761c-11.005-0.429-18.458,4.738-23.042,14.456
		c-0.509,1.079-1,2.167-1.459,3.267c-4.239,10.173-5.679,20.948-6.217,31.797c-1.082,21.839,1.964,43.315,6.482,64.623
		c0.49,2.309,1.341,2.975,3.911,2.348c21.101-5.142,42.489-8.698,64.078-11.037c1.449-0.157,2.361-0.677,3.21-1.847
		c12.994-17.903,27.027-34.953,42.215-51.04c1.338-1.417,1.241-2.287-0.171-3.449c-1.935-1.593-3.746-3.336-5.642-4.977
		c-16.588-14.349-34.073-27.37-54.185-36.481C178.893,28.207,169.258,25.226,159.016,24.761z M296.651,127.441
		c-0.411-0.971-0.481-1.338-0.688-1.598c-8.697-10.918-17.74-21.533-27.418-31.604c-1.564-1.628-2.275-0.724-3.337,0.387
		c-7.666,8.027-14.866,16.462-21.872,25.059c-1.88,2.307-4.171,4.414-5.353,7.703C257.647,126.963,276.931,126.89,296.651,127.441z
		 M237.363,348.893c9.401,12.237,18.941,22.89,28.65,33.4c1.441,1.56,2.247,0.893,3.377-0.384
		c5.216-5.899,10.618-11.634,15.76-17.596c4.158-4.821,8.039-9.881,12.517-15.421C277.274,350.067,257.782,349.893,237.363,348.893z
		 M378.064,267.513c-9.106,18.063-18.889,35.034-29.848,52.154c4.07-0.631,7.354-1.072,10.612-1.657
		c10.54-1.895,21.07-3.847,31.47-6.43c1.318-0.327,3.002-0.351,2.308-2.635C388.417,295.166,383.808,281.54,378.064,267.513z
		 M156.375,208.163c1.347-0.807,1.597-2.051,2.143-3.077c7.694-14.44,15.58-28.768,24.37-42.582c0.936-1.471,3.062-3.27,2.258-4.537
		c-1.083-1.705-3.437-0.037-5.249,0.07c-0.358,0.021-0.72,0.022-1.072,0.079c-11.651,1.881-23.215,4.201-34.723,6.809
		c-1.86,0.422-2.573,1.013-1.827,3.14c1.735,4.948,3.019,10.053,4.73,15.011C149.909,191.491,152.732,199.945,156.375,208.163z
		 M186.479,319.554c-10.817-16.871-20.673-33.599-29.907-51.538c-5.551,14.054-10.158,27.435-14.204,41.016
		c-0.562,1.885,0.232,2.265,1.754,2.578c3.843,0.789,7.659,1.712,11.499,2.521C165.61,316.238,175.655,318.025,186.479,319.554z
		 M378.166,208.563c5.402-13.938,10.034-27.45,14.142-41.152c0.75-2.501-1.032-2.293-2.188-2.564
		c-12.407-2.913-24.931-5.24-37.503-7.31c-1.066-0.175-2.579-0.847-3.234,0.403c-0.507,0.968,0.66,1.92,1.218,2.801
		c7.276,11.496,14.336,23.118,20.751,35.122C373.527,199.932,375.714,203.994,378.166,208.563z"/>
	<path fill="#2bb1a8" d="M217.673,237.998c-0.667-25.023,20.077-49.647,49.689-49.555c30.26,0.093,49.975,25.074,49.65,50.066
		c-0.362,27.737-22.224,49.484-50.148,49.531C239.876,288.085,216.824,265.008,217.673,237.998z"/>
</g>
</svg>
