<?xml version="1.0" encoding="utf-8"?>
<!-- Generator: Adobe Illustrator 17.0.0, SVG Export Plug-In . SVG Version: 6.00 Build 0)  -->
<!DOCTYPE svg PUBLIC "-//W3C//DTD SVG 1.1//EN" "http://www.w3.org/Graphics/SVG/1.1/DTD/svg11.dtd">
<svg version="1.1" id="Layer_1" xmlns="http://www.w3.org/2000/svg" xmlns:xlink="http://www.w3.org/1999/xlink" x="0px" y="0px"
	 width="475.717px" height="476.537px" viewBox="0 0 475.717 476.537" enable-background="new 0 0 475.717 476.537"
	 xml:space="preserve">
<g>
	<path fill="#FFFFFF" d="M237.859,476.127L0,0.41h77.888l18.579,36.531c12.053,23.697,24.105,47.394,36.146,71.097
		c22.462,44.222,44.91,88.45,67.349,132.684c5.204,10.259,10.403,20.521,15.603,30.784c7.438,14.681,14.876,29.364,22.33,44.037
		L397.829,0.41h77.889L237.859,476.127z M25.889,16.41l211.97,423.94L449.829,16.41h-42.178L242.622,341.582l-6.395-1.902
		c-5.551-1.651-7.309-6.062-7.971-7.723c-0.046-0.115-0.089-0.229-0.138-0.339c-8.937-17.57-17.882-35.227-26.827-52.882
		c-5.198-10.26-10.396-20.52-15.599-30.776c-22.438-44.231-44.885-88.458-67.346-132.676c-12.039-23.701-24.09-47.395-36.142-71.089
		L68.075,16.41H25.889z"/>
	<path fill="#2bb1a8" d="M242.622,341.852l-6.395-1.902c-5.552-1.651-7.309-6.063-7.971-7.723c-0.046-0.115-0.089-0.229-0.138-0.339
		c-8.964-17.624-17.936-35.333-26.908-53.043c-5.171-10.206-10.342-20.412-15.518-30.615
		c-22.438-44.23-44.884-88.457-67.345-132.676c-12.075-23.773-24.164-47.539-36.251-71.305L59.954,0.709l13.01-0.029
		c6.023-0.014,12.047-0.023,18.071-0.033c19.297-0.031,39.252-0.063,58.863-0.226l0.13-0.001c7.948,0,10.688,5.845,11.719,8.045
		l0.225,0.474c17.66,36.342,35.32,72.686,52.971,109.034c4.817,9.919,9.627,19.841,14.438,29.763
		c2.821,5.818,5.642,11.636,8.464,17.454c24.479-50.305,50.307-103.425,75.621-155.82c2.912-6.029,7.533-8.96,14.127-8.96
		l0.242,0.001c18.874,0.182,38.082,0.209,56.657,0.237c6.089,0.009,12.178,0.018,18.267,0.032l12.998,0.03L242.622,341.852z
		 M86.013,16.654l10.345,20.34c12.089,23.769,24.179,47.538,36.255,71.313c22.462,44.222,44.91,88.45,67.349,132.684
		c5.177,10.206,10.349,20.414,15.521,30.623c7.466,14.736,14.931,29.471,22.412,44.198L389.72,16.656
		c-1.751-0.003-3.501-0.005-5.252-0.008c-18.558-0.027-37.745-0.055-56.636-0.236C301.031,71.885,273.66,128.16,247.92,181.049
		c-0.109,0.224-0.194,0.461-0.288,0.7c-0.729,1.844-2.084,5.276-5.896,7.633l-7.36,4.55l-3.96-7.694
		c-0.292-0.568-0.578-1.115-0.856-1.647c-0.634-1.214-1.232-2.363-1.797-3.528c-4.263-8.78-8.521-17.563-12.779-26.346
		c-4.81-9.919-9.619-19.838-14.434-29.754c-17.568-36.179-35.146-72.352-52.723-108.525c-18.951,0.148-38.163,0.179-56.766,0.209
		C89.377,16.649,87.695,16.652,86.013,16.654z"/>
</g>
</svg>
