<?xml version="1.0" encoding="utf-8"?>
<!-- Generator: Adobe Illustrator 17.0.0, SVG Export Plug-In . SVG Version: 6.00 Build 0)  -->
<!DOCTYPE svg PUBLIC "-//W3C//DTD SVG 1.1//EN" "http://www.w3.org/Graphics/SVG/1.1/DTD/svg11.dtd">
<svg version="1.1" id="Layer_1" xmlns="http://www.w3.org/2000/svg" xmlns:xlink="http://www.w3.org/1999/xlink" x="0px" y="0px"
	 width="464.041px" height="476.537px" viewBox="0 0 464.041 476.537" enable-background="new 0 0 464.041 476.537"
	 xml:space="preserve">
<g>
	<path fill="#2bb1a8" d="M341.036,177.723c-10.652-0.913-20.923-1.793-31.184-2.672c-2.936,6.974-5.765,13.692-8.728,20.73
		c7.889,6.596,15.923,13.313,23.506,19.653c-12.341,12.407-24.622,24.752-37.179,37.376c-5.425-6.484-11.304-13.272-16.882-20.298
		c-2.169-2.732-3.772-3.529-7.206-1.662c-5.123,2.786-10.738,4.666-16.392,7.036c0.906,10.308,1.819,20.707,2.782,31.672
		c-6.376,0-12.361,0-18.589,0c0,21.627,0,42.713,0,64.408c1.708-0.419,3.223-0.719,4.694-1.162
		c11.13-3.347,22.305-6.563,33.329-10.229c2.078-0.691,4.311-2.885,5.181-4.934c8.996-21.17,21.791-39.539,39.24-54.608
		c25.035-21.621,41.136-48.403,47.616-81.03c14.448-72.746-32.516-146.108-104.661-163.107
		C179.301,0.691,103.064,47.659,86.375,125.066c-11.119,51.57,3.314,96.47,41.385,133.015
		c17.227,16.537,32.503,34.166,42.357,56.082c1.528,3.399,2.895,6.871,4.548,10.814c-4.833,1.804-9.2,3.434-13.338,4.978
		c-4.829-9.098-8.678-18.438-14.345-26.5c-7.12-10.128-14.836-20.175-23.877-28.548c-20.725-19.193-36.932-41.106-46.475-67.815
		C44.173,116.261,103.379,16.756,198.753,1.913C282.82-11.17,361.651,44.142,376.188,128.02
		c9.688,55.904-6.911,104.22-48.953,142.709c-18.541,16.974-33.269,36.01-41.653,59.804c-0.556,1.578-2.168,3.456-3.682,3.924
		c-29.559,9.134-59.176,18.08-88.783,27.056c-0.299,0.091-0.63,0.076-1.56,0.179c-1.353-4.352-2.74-8.816-4.333-13.942
		c7.836-2.424,15.351-5.047,23.034-7.007c4.219-1.076,5.676-2.874,5.616-7.325c-0.258-19.348-0.111-38.702-0.111-58.054
		c0-1.756,0-3.512,0-5.818c-6.567,0-12.553,0-18.894,0c0.95-11.001,1.849-21.406,2.735-31.663
		c-6.947-2.895-13.561-5.651-20.684-8.62c-6.588,7.815-13.402,15.9-20.101,23.847c-12.482-12.603-24.67-24.908-37.104-37.462
		c7.69-6.441,15.701-13.15,23.713-19.861c-2.858-6.842-5.615-13.445-8.644-20.698c-10.061,0.836-20.596,1.711-31.425,2.611
		c0-17.673,0-34.964,0-52.747c10.671,0.929,21.054,1.834,31.389,2.734c2.908-6.936,5.731-13.672,8.699-20.751
		c-7.914-6.617-15.922-13.314-23.55-19.692c12.457-12.455,24.688-24.684,37.274-37.268c6.259,7.464,13.037,15.547,19.662,23.447
		c6.35-2.545,12.466-4.797,18.362-7.527c1.172-0.543,2.2-2.959,2.101-4.431c-0.615-9.143-1.571-18.263-2.451-27.796
		c17.539,0,34.838,0,52.784,0c-0.418,5.235-0.812,10.536-1.273,15.831c-0.369,4.245-1.029,8.479-1.106,12.727
		c-0.023,1.276,1.181,3.242,2.332,3.759c5.793,2.603,11.755,4.832,18.197,7.407c6.428-7.67,13.142-15.683,19.493-23.261
		c12.327,12.426,24.587,24.785,37.075,37.374c-7.061,5.912-15.08,12.627-23.201,19.425c2.842,6.798,5.651,13.515,8.671,20.739
		c10.069-0.873,20.458-1.774,31.219-2.707C341.036,142.536,341.036,159.822,341.036,177.723z M230.778,225.315
		c14.779-1.986,27.93-7.362,39.511-16.463c6.582,7.847,12.64,15.07,18.164,21.655c4.947-4.887,9.447-9.333,14.065-13.895
		c-6.959-5.843-14.216-11.936-21.812-18.314c9.488-11.666,14.411-25.027,16.59-39.471c10.059,0.852,19.423,1.644,28.78,2.437
		c0-6.892,0-13.185,0-19.795c-9.801,0.818-19.206,1.603-28.876,2.41c-2.002-14.929-7.399-27.93-16.402-39.545
		c7.649-6.417,14.891-12.493,21.306-17.875c-4.638-4.888-9.063-9.552-13.598-14.331c-5.929,7.076-11.998,14.318-18.225,21.749
		c-11.871-9.223-24.903-14.531-39.485-16.47c0.827-9.976,1.604-19.349,2.389-28.815c-7.014,0-13.326,0-19.833,0
		c0.815,9.719,1.604,19.121,2.421,28.852c-14.908,1.999-27.877,7.428-39.503,16.362c-6.39-7.593-12.474-14.823-18.335-21.787
		c-4.772,4.718-9.279,9.174-14.084,13.925c7.006,5.869,14.347,12.02,21.944,18.384c-9.219,11.936-14.453,25-16.438,39.568
		c-9.948-0.827-19.329-1.607-28.885-2.402c0,6.979,0,13.256,0,19.793c9.788-0.831,19.183-1.628,28.231-2.395
		c2.125,7.271,3.541,14.241,6.219,20.686c2.732,6.575,6.705,12.635,10.328,19.274c-7.104,5.95-14.363,12.029-21.218,17.771
		c4.716,4.732,9.299,9.332,13.977,14.027c5.886-7.007,11.976-14.257,17.806-21.198c6.774,3.675,12.864,7.642,19.466,10.372
		c6.542,2.705,13.601,4.161,20.465,6.175c-0.802,9.499-1.582,18.733-2.37,28.066c6.852,0,13.128,0,19.836,0
		C232.394,244.389,231.61,235.139,230.778,225.315z"/>
	<path fill="#FFFFFF" d="M411.132,229.299c0-15.918-0.001-31.301,0-46.685c0.001-7.705-0.11-15.412,0.032-23.115
		c0.256-13.912,10.934-25.039,24.634-25.854c13.952-0.83,25.687,8.632,27.709,22.443c0.354,2.419,0.442,4.895,0.445,7.345
		c0.031,25.082-0.178,50.167,0.09,75.247c0.174,16.262-4.04,31.785-6.975,47.535c-1.859,9.977-3.954,19.91-5.871,29.877
		c-1.988,10.339-6.987,18.934-14.646,26.096c-11.975,11.196-23.806,22.547-35.884,33.629c-3.12,2.862-4.575,5.735-4.485,10.099
		c0.294,14.257,0.169,28.523,0.103,42.785c-0.114,24.664-18.616,45.455-42.291,47.622c-25.052,2.293-46.649-13.791-51.656-38.469
		c-0.065-0.321-0.207-0.639-0.209-0.959c-0.122-28.436-3.558-57.118,4.869-84.997c7.587-25.099,20.624-46.909,42.689-61.838
		c6.617-4.477,11.643-9.607,15.987-15.961c7.398-10.819,15.176-21.384,22.407-32.312
		C393.489,233.612,400.512,228.946,411.132,229.299z M373.368,316.71c13.685-19.995,27.02-39.453,40.321-58.934
		c3.446-5.047,3.105-9.405-0.81-12.072c-3.982-2.713-8.003-1.515-11.551,3.55c-9.589,13.69-19.189,27.372-28.69,41.123
		c-3.077,4.454-5.853,8.984-11.817,10.211c-1.789,0.368-3.423,1.898-4.938,3.13c-20.319,16.532-32.257,38.113-37.107,63.552
		c-4.146,21.745-2.621,43.856-1.719,65.735c0.767,18.602,19.607,31.455,37.943,27.85c15.708-3.089,26.097-15.937,26.247-32.774
		c0.13-14.591,0.329-29.192-0.091-43.772c-0.222-7.719,2.344-13.407,8.08-18.489c10.181-9.02,19.451-19.112,29.955-27.713
		c11.486-9.405,18.059-20.866,19.384-35.517c0.103-1.136,0.405-2.254,0.619-3.38c3.106-16.405,8.083-32.716,8.91-49.235
		c1.506-30.094,0.615-60.312,0.568-90.478c-0.009-6.104-4.68-10.587-10.502-10.875c-5.93-0.293-10.721,3.559-11.816,9.567
		c-0.204,1.119-0.238,2.282-0.238,3.424c-0.013,24.265-0.03,48.531,0.036,72.796c0.004,1.555,0.309,3.332,1.096,4.628
		c5.783,9.52,4.936,18.524-1.31,27.536c-12.601,18.18-25.006,36.496-37.504,54.747c-0.813,1.187-1.723,2.307-2.807,3.75
		C381.558,322.295,377.674,319.646,373.368,316.71z"/>
	<path fill="#FFFFFF" d="M52.885,229.308c10.464-0.405,17.392,4.123,22.777,12.104c9.256,13.717,18.877,27.188,28.397,40.725
		c1.012,1.439,2.137,3.094,3.618,3.862c19.886,10.304,32.248,27.393,41.901,46.746c8.689,17.42,12.732,36.052,12.784,55.524
		c0.036,13.607,0.098,27.216-0.009,40.822c-0.21,26.73-21.067,47.498-47.466,47.385c-26.283-0.113-47.065-21.158-47.163-47.826
		c-0.053-14.427-0.119-28.856,0.068-43.281c0.048-3.719-0.926-6.347-3.752-8.924c-11.386-10.383-22.228-21.377-33.838-31.493
		c-10.154-8.848-15.909-19.671-18.324-32.704c-3.37-18.187-7.109-36.305-10.446-54.498c-0.912-4.97-1.306-10.098-1.33-15.156
		c-0.127-27.051-0.133-54.103-0.035-81.154c0.058-15.961,10.797-27.447,25.721-27.856c14.932-0.409,26.972,11.218,27.061,26.438
		c0.122,21.149,0.034,42.298,0.036,63.448C52.885,225.244,52.885,227.018,52.885,229.308z M78.198,325.212
		c-14.251-20.886-28.359-41.202-42.036-61.805c-4.807-7.24-4.4-15.194-0.268-22.899c0.827-1.542,1.913-3.246,1.92-4.88
		c0.116-25.248,0.179-50.498-0.003-75.746c-0.048-6.679-5.019-11.23-11.242-11.268c-6.834-0.042-11.278,4.819-11.289,12.615
		c-0.038,27.38-0.037,54.761,0.024,82.141c0.008,3.428,0.143,6.915,0.763,10.274c3.414,18.512,7.084,36.978,10.487,55.492
		c1.747,9.508,5.767,17.428,13.135,24.009c12.347,11.026,24.087,22.729,36.314,33.892c4.87,4.446,6.922,9.499,6.814,16.046
		c-0.25,15.244-0.253,30.497-0.03,45.741c0.274,18.756,14.697,32.975,32.808,32.718c17.862-0.253,31.707-14.676,31.785-33.194
		c0.053-12.788,0.001-25.577,0.011-38.365c0.018-24.84-6.875-47.528-21.539-67.638c-6.581-9.025-13.746-17.749-24.284-22.403
		c-3.497-1.545-5.99-3.471-8.1-6.532c-10.419-15.108-20.942-30.145-31.514-45.147c-3.028-4.297-7.336-5.11-11.019-2.409
		c-3.45,2.53-3.979,6.681-1.282,10.91c1.585,2.485,3.32,4.875,4.985,7.309c11.917,17.428,23.833,34.857,35.993,52.642
		C86.508,319.533,82.623,322.188,78.198,325.212z"/>
	<path fill="#FFFFFF" d="M241.587,410.013c-4.07,0-8.598,0-13.688,0c0-1.835,0.257-3.481-0.081-4.994
		c-0.273-1.223-1.006-2.941-1.972-3.318c-8.076-3.146-13.632-8.804-17.239-16.897c-5.138,1.494-10.118,2.942-15.63,4.544
		c-1.469-4.605-2.885-9.047-4.535-14.218c29.762-9.069,59.348-18.084,89.3-27.211c1.521,4.952,2.891,9.413,4.388,14.287
		c-5.115,1.611-9.856,3.341-14.727,4.552c-2.972,0.739-3.943,2.1-3.796,5.098c0.698,14.204-5.59,23.965-18.571,29.946
		C243.186,402.653,242.853,406.804,241.587,410.013z M248.306,372.617c-8.55,2.62-16.723,5.124-25.016,7.665
		c3.833,6.759,9.486,9.267,15.895,7.441C245.324,385.974,248.897,380.397,248.306,372.617z"/>
	<path fill="#FFFFFF" d="M242.473,452.38c-4.741,0-9.245,0-14.163,0c0-4.578,0-9.044,0-13.9c4.505,0,9.144,0,14.163,0
		C242.473,442.868,242.473,447.345,242.473,452.38z"/>
	<path fill="#FFFFFF" d="M242.456,431.038c-4.916,0-9.438,0-14.255,0c0-4.54,0-8.86,0-13.576c4.66,0,9.293,0,14.255,0
		C242.456,421.929,242.456,426.502,242.456,431.038z"/>
	<path fill="#FFFFFF" d="M228.33,459.667c4.95,0,9.466,0,14.249,0c0,4.564,0,8.892,0,13.586c-4.658,0-9.285,0-14.249,0
		C228.33,468.747,228.33,464.194,228.33,459.667z"/>
	<path fill="#FFFFFF" d="M222.739,194.248c-23.768-0.338-42.705-19.699-42.383-43.332c0.326-23.904,19.849-42.883,43.759-42.542
		c23.414,0.334,42.619,20.201,42.214,43.669C265.922,175.659,246.376,194.585,222.739,194.248z M195.467,151.399
		c0.015,15.42,12.345,27.786,27.747,27.827c15.331,0.04,27.865-12.347,27.985-27.658c0.121-15.384-12.753-28.312-28.066-28.184
		C207.891,123.511,195.453,136.106,195.467,151.399z"/>
</g>
</svg>
