<?xml version="1.0" encoding="utf-8"?>
<!-- Generator: Adobe Illustrator 17.0.0, SVG Export Plug-In . SVG Version: 6.00 Build 0)  -->
<!DOCTYPE svg PUBLIC "-//W3C//DTD SVG 1.1//EN" "http://www.w3.org/Graphics/SVG/1.1/DTD/svg11.dtd">
<svg version="1.1" id="Capa_1" xmlns="http://www.w3.org/2000/svg" xmlns:xlink="http://www.w3.org/1999/xlink" x="0px" y="0px"
	 width="463.96px" height="432.061px" viewBox="291.989 264.968 463.96 432.061"
	 enable-background="new 291.989 264.968 463.96 432.061" xml:space="preserve">
<g>
	<path fill="#FFFFFF" d="M442.829,313.065c0-6.213-0.556-11.749,0.225-17.091c0.416-2.845,2.585-6.103,4.943-7.853
		c4.647-3.448,10.072-5.825,14.996-8.929c3.934-2.48,7.71-2.795,11.722-0.464c2.587,1.503,5.554,2.585,7.7,4.561
		c3.402,3.133,6.677,3.095,10.893,1.969c3.95-1.055,6.45-2.732,7.607-6.687c0.549-1.877,1.818-3.537,2.704-5.324
		c2.955-5.96,7.312-9.075,14.375-8.28c4.772,0.537,9.663,0.293,14.482,0.044c4.518-0.233,7.708,1.563,9.968,5.308
		c1.375,2.278,3.342,4.436,3.921,6.911c1.634,6.984,7.158,7.934,12.715,8.911c1.113,0.196,2.494-0.394,3.577-0.956
		c1.315-0.682,2.458-1.704,3.653-2.606c7.475-5.643,15.018-7.623,23.019-0.85c1.748,1.48,3.896,2.662,6.053,3.454
		c9.022,3.312,10.868,10.31,10.071,18.813c-0.26,2.772-0.423,5.552-0.685,9.068c2.43,0,4.367,0,6.304,0
		c34.325,0,68.65-0.013,102.976,0.005c24.689,0.013,41.881,17.109,41.886,41.71c0.017,100.31,0.021,200.619-0.003,300.929
		c-0.005,23.969-17.329,41.3-41.292,41.304c-127.137,0.021-254.273,0.023-381.41-0.003c-23.942-0.005-41.222-17.364-41.227-41.359
		c-0.02-100.31-0.017-200.619-0.003-300.929c0.003-24.364,17.186-41.63,41.44-41.649c34.492-0.028,68.984-0.007,103.476-0.007
		C438.848,313.065,440.78,313.065,442.829,313.065z M645.952,423.858c0.368,0.398,0.736,0.795,1.104,1.193
		c16.99,0,33.98-0.017,50.97,0.009c6.294,0.01,9.925,3.006,9.896,8.033c-0.029,5.015-3.648,7.948-9.985,7.948
		c-115.972,0.012-231.944,0.014-347.916,0.006c-6.333,0-9.968-2.929-10.015-7.926c-0.047-5.016,3.614-8.058,9.87-8.068
		c15.496-0.025,30.993-0.005,46.489-0.003c1.563,0,3.126,0,4.69,0c-1.452-1.736-2.953-2.682-4.534-3.466
		c-6.296-3.124-9.631-7.694-8.648-15.168c0.571-4.342,0.104-8.82,0.104-13.07c-27.072,0-53.334,0-79.983,0c0,1.913,0,3.549,0,5.185
		c0,85.479-0.006,170.959,0.004,256.438c0.002,16.236,9.868,26.036,26.216,26.038c126.636,0.009,253.273,0.009,379.909-0.001
		c15.926-0.001,25.803-9.935,25.805-25.94c0.012-85.479,0.008-170.959,0.01-256.438c0-1.76,0-3.521,0-5.166
		c-27.069,0-53.448,0-79.989,0c0,2.237-0.17,4.084,0.028,5.892C661.212,410.623,659.922,420.527,645.952,423.858z M462.894,425.045
		c-0.947-9.771-2.625-19.288-2.581-28.797c0.045-9.734,3.541-18.885,8.506-27.365c4.968-8.485,11.399-15.615,19.7-20.873
		c22.086-13.988,45.237-15.553,67.483-1.895c29.788,18.288,37.489,45.713,28.018,78.625c13.826,0,27.412,0,41.088,0
		c0.363-1.198,0.737-2.122,0.918-3.082c1.175-6.253,3.602-10.908,11.163-11.018c2.175-0.032,5.18-1.64,6.323-3.457
		c4.076-6.484-0.55-15.27-8.333-16.003c-4.569-0.43-6.932-2.773-8.045-6.857c-1.749-6.419-3.326-12.887-5.185-19.274
		c-1.377-4.731-0.392-8.215,3.712-11.315c2.242-1.694,4.77-4.6,4.957-7.124c0.547-7.396-8.17-12.767-15.222-9.668
		c-4.118,1.81-7.339,1.155-10.385-1.945c-4.671-4.754-9.353-9.5-14.152-14.124c-3.493-3.366-4.624-6.792-2.59-11.625
		c1.113-2.644,1.708-6.871,0.346-8.944c-4.706-7.157-12.544-6.931-17.855-0.096c-2.547,3.277-5.535,4.364-9.626,3.159
		c-6.539-1.927-13.156-3.602-19.769-5.266c-4.569-1.149-6.988-3.702-7.581-8.611c-0.337-2.79-1.519-6.363-3.578-7.891
		c-5.828-4.324-15.405,0.555-16.1,8.042c-0.441,4.754-2.74,7.234-7.104,8.363c-6.441,1.667-12.904,3.267-19.282,5.153
		c-4.586,1.356-7.857,0.251-10.931-3.516c-1.875-2.297-4.93-5.09-7.476-5.112c-8.014-0.068-12.643,7.908-9.399,15.391
		c1.704,3.932,1.035,7.065-1.885,9.969c-4.49,4.464-9.075,8.842-13.396,13.465c-3.805,4.071-7.507,5.702-13.195,3.056
		c-6.044-2.812-7.878-1.467-12.153,5.972c-2.654,4.619-2.148,6.967,2.383,10.953c0.372,0.327,0.806,0.585,1.217,0.866
		c3.65,2.496,4.57,5.755,3.288,10.001c-1.778,5.888-3.42,11.832-4.768,17.832c-1.231,5.475-3.656,8.775-9.877,9.315
		c-3.102,0.269-7.45,0.909-7.6,6.154c-0.285,9.934,0.195,12.269,6.598,12.868c7.646,0.715,10.165,4.91,11.509,11.364
		c0.266,1.276,2.132,3.146,3.288,3.166C438.138,425.129,450.955,425.045,462.894,425.045z M739.932,377.054
		c0-7.747,0.018-15.022-0.004-22.297c-0.046-15.624-9.991-25.664-25.517-25.685c-23.3-0.032-46.599-0.006-69.899-0.004
		c-1.405,0-2.811,0-4.906,0c1.492,2.754,2.273,5.017,3.716,6.721c6.808,8.039,4.659,15.551-0.982,22.984
		c-0.503,0.662-0.875,1.446-1.459,2.019c-4.82,4.725-0.724,9.442,0.553,13.796c0.414,1.412,4.731,2.352,7.269,2.367
		c28.624,0.162,57.25,0.101,85.875,0.1C736.198,377.053,737.817,377.054,739.932,377.054z M308.115,377.05
		c31.633,0,62.582-0.007,93.531,0.01c3.268,0.002,4.866-1.422,5.949-4.665c1.758-5.266,1.998-9.768-2.231-14.064
		c-1.683-1.71-2.461-4.3-3.704-6.459c-2.303-4-2.135-7.791,0.404-11.711c2.202-3.4,4.019-7.05,6.275-11.067
		c-26.494,0-52.121-0.186-77.743,0.085c-11.44,0.121-21.499,9.584-22.352,21.032C307.593,358.939,308.115,367.755,308.115,377.05z
		 M571.146,393.256c-31.544,0-62.79,0-94.332,0c-2.125,10.688-0.234,20.59,4.874,29.903c0.577,1.051,2.652,1.806,4.036,1.812
		c25.464,0.107,50.929,0.099,76.393,0.021c1.301-0.004,3.281-0.473,3.794-1.377C571.246,414.207,573.216,404.165,571.146,393.256z
		 M565.338,376.803c-10.333-15.483-23.98-23.805-41.913-23.606c-17.479,0.193-30.859,8.355-40.735,23.606
		C510.491,376.803,537.466,376.803,565.338,376.803z"/>
	<path fill="#2bb1a8" d="M523.974,505.044c-33.802-0.002-67.605,0.007-101.407-0.007c-12.571-0.005-18.583-6.092-18.587-18.74
		c-0.001-4.329-0.071-8.66,0.014-12.988c0.185-9.357,6.768-16.217,16.053-16.226c69.27-0.066,138.539-0.066,207.809,0.004
		c9.305,0.009,15.878,6.844,16.074,16.201c0.091,4.328,0.025,8.658,0.024,12.988c-0.005,12.645-6.054,18.766-18.573,18.768
		C591.579,505.05,557.777,505.046,523.974,505.044z M627.723,473.396c-69.439,0-138.454,0-207.331,0c0,5.413,0,10.465,0,15.381
		c69.311,0,138.206,0,207.331,0C627.723,483.583,627.723,478.652,627.723,473.396z"/>
	<path fill="#2bb1a8" d="M668.38,601.028c-9.995,0-19.99,0.077-29.983-0.051c-2.597-0.033-4.072,0.599-5.379,3.11
		c-4.359,8.374-11.509,12.841-20.969,12.879c-9.46,0.038-16.793-4.305-21.025-12.731c-1.732-3.448-4.025-3.217-6.828-3.216
		c-76.959,0.013-153.917,0.012-230.876,0.013c-1.166,0-2.332,0.014-3.498,0.001c-6.23-0.069-9.897-3.107-9.816-8.125
		c0.081-4.999,3.698-7.875,10.06-7.876c77.625-0.008,155.25-0.023,232.875,0.06c4.057,0.004,6.584-0.644,8.993-4.737
		c9.193-15.619,31.978-14.988,40.731,0.952c1.641,2.988,3.292,3.817,6.474,3.795c19.822-0.137,39.645-0.036,59.467-0.095
		c4.069-0.012,7.77,1.213,8.556,5.267c0.515,2.658-0.473,6.221-2.072,8.464c-1.117,1.566-4.393,2.142-6.727,2.195
		C688.373,601.158,678.375,601.028,668.38,601.028z M619.925,592.873c-0.083-4.318-3.688-7.844-7.999-7.823
		c-4.308,0.021-7.893,3.576-7.951,7.885c-0.06,4.501,3.755,8.229,8.253,8.065C616.547,600.843,620.008,597.189,619.925,592.873z"/>
	<path fill="#FFFFFF" d="M576.171,553.038c-40.312-0.001-80.624,0.029-120.936-0.06c-3.12-0.007-4.892,0.656-6.535,3.707
		c-4.364,8.104-11.552,12.329-20.814,12.291c-9.258-0.039-16.358-4.328-20.736-12.441c-1.505-2.789-3.081-3.599-6.112-3.571
		c-16.49,0.154-32.982,0.074-49.473,0.07c-7.762-0.002-11.471-2.536-11.555-7.877c-0.085-5.375,3.725-8.116,11.315-8.119
		c16.491-0.006,32.983-0.085,49.473,0.067c3.189,0.029,4.857-0.8,6.489-3.789c4.408-8.076,11.594-12.275,20.86-12.226
		c9.061,0.048,16.171,4.184,20.425,12.091c1.76,3.271,3.669,3.904,6.921,3.902c80.125-0.065,160.249-0.051,240.374-0.052
		c8.218,0,11.974,2.451,12.059,7.884c0.086,5.476-3.774,8.124-11.818,8.124C656.129,553.038,616.15,553.038,576.171,553.038z
		 M428.01,537.057c-4.312-0.02-7.922,3.504-8.011,7.819c-0.088,4.293,3.4,7.981,7.697,8.139c4.492,0.165,8.314-3.567,8.26-8.067
		C435.905,540.643,432.314,537.077,428.01,537.057z"/>
	<path fill="#FFFFFF" d="M608.476,649.024c-29.651,0.001-59.303,0.041-88.954-0.055c-3.259-0.011-5.17,0.59-6.943,3.875
		c-4.363,8.086-11.638,12.23-20.906,12.123c-9.054-0.104-16.174-4.248-20.348-12.206c-1.779-3.393-3.807-3.787-7-3.781
		c-37.647,0.072-75.294,0.045-112.942,0.039c-1.498,0-3.038,0.166-4.487-0.117c-4.296-0.838-6.859-3.52-6.826-7.938
		c0.033-4.418,2.643-7.052,6.945-7.837c1.454-0.265,2.99-0.1,4.489-0.1c37.647-0.004,75.295-0.039,112.942,0.054
		c3.283,0.008,5.123-0.68,6.907-3.914c8.863-16.064,32.051-16.252,41.02-0.279c2.041,3.634,4.233,4.186,7.769,4.182
		c58.803-0.069,117.606-0.047,176.409-0.042c1.498,0,3.04-0.172,4.486,0.115c4.285,0.85,6.858,3.525,6.826,7.944
		c-0.032,4.42-2.643,7.052-6.944,7.837c-1.454,0.266-2.99,0.096-4.489,0.097C667.112,649.024,637.794,649.023,608.476,649.024z
		 M492.061,633.045c-4.309-0.053-7.949,3.447-8.071,7.759c-0.121,4.293,3.34,8.008,7.638,8.198c4.49,0.198,8.338-3.506,8.32-8.008
		C499.93,636.69,496.366,633.098,492.061,633.045z"/>
	<path fill="#FFFFFF" d="M340.014,353.095c0,4.408-3.46,7.922-7.863,7.989c-4.576,0.069-8.288-3.685-8.146-8.24
		c0.135-4.332,3.815-7.845,8.144-7.772C336.515,345.147,340.015,348.716,340.014,353.095z"/>
	<path fill="#FFFFFF" d="M363.958,361.077c-4.414-0.016-7.916-3.48-7.965-7.881c-0.051-4.571,3.721-8.274,8.27-8.118
		c4.35,0.149,7.795,3.798,7.716,8.171C371.899,357.65,368.372,361.092,363.958,361.077z"/>
</g>
</svg>
