<?xml version="1.0" encoding="utf-8"?>
<!-- Generator: Adobe Illustrator 17.0.0, SVG Export Plug-In . SVG Version: 6.00 Build 0)  -->
<!DOCTYPE svg PUBLIC "-//W3C//DTD SVG 1.1//EN" "http://www.w3.org/Graphics/SVG/1.1/DTD/svg11.dtd">
<svg version="1.1" id="Capa_1" xmlns="http://www.w3.org/2000/svg" xmlns:xlink="http://www.w3.org/1999/xlink" x="0px" y="0px"
	 width="447.989px" height="480.003px" viewBox="299.975 240.936 447.989 480.003"
	 enable-background="new 299.975 240.936 447.989 480.003" xml:space="preserve">
<g>
	<path fill="#FFFFFF" d="M347.996,416.946c0-16.83,0.003-33.118-0.001-49.406c-0.007-30.992-0.011-61.985-0.031-92.977
		c-0.013-19.831,13.785-33.63,33.606-33.627c110.472,0.017,220.945,0.022,331.417,0.033c22.001,0.002,34.982,13.167,34.977,35.191
		c-0.031,136.799-0.017,273.599-0.016,410.398c0,20.971-13.363,34.351-34.307,34.352c-110.806,0.006-221.611,0.01-332.417,0.029
		c-19.26,0.003-33.157-13.748-33.226-32.955c-0.008-2.141-0.001-4.283-0.001-7.04c-3.067,0-5.837,0.002-8.606,0
		c-10.164-0.01-20.329,0.042-30.492-0.056c-5.71-0.055-8.832-2.973-8.855-8.521c-0.089-20.994-0.092-41.99,0.003-62.984
		c0.025-5.46,3.249-8.401,8.959-8.434c12.797-0.074,25.596-0.023,38.691-0.023c0-8.091,0-15.807,0-23.999
		c-12.486,0-24.772,0.01-37.058-0.003c-8.142-0.009-10.628-2.507-10.63-10.802c-0.014-46.322-0.012-92.644-0.001-138.965
		c0.002-7.575,2.626-10.192,10.195-10.204C322.528,416.932,334.853,416.946,347.996,416.946z M364.256,600.926
		c2.341,0,4.313,0,6.285,0c87.141,0,174.283-0.02,261.424,0.081c3.206,0.004,6.725,0.547,9.564,1.933
		c20.034,9.777,39.908,19.879,59.884,29.775c3.492,1.73,6.39,3.734,6.498,8.001c0.115,4.524-2.863,6.68-6.527,8.499
		c-19.375,9.618-38.64,19.46-58.092,28.919c-3.43,1.668-7.563,2.661-11.373,2.667c-87.138,0.147-174.277,0.113-261.416,0.113
		c-2.093,0-4.185,0-6.169,0c-2.32,16.831,5.764,24.266,21.2,24.193c86.637-0.407,173.277-0.194,259.915-0.198
		c23.326-0.001,46.652,0.05,69.977-0.063c9.797-0.048,16.225-6.563,16.48-16.284c0.066-2.498,0.04-4.998,0.04-7.497
		c0.001-118.462,0.001-236.924-0.011-355.386c0-1.447-0.148-2.893-0.23-4.395c-122.683,0-245.035,0-367.298,0
		c0,32.034,0,63.74,0,95.662c2.738,0,5.064,0,7.39,0c52.483,0,104.966-0.007,157.449,0.006c8.232,0.002,10.721,2.512,10.722,10.711
		c0.007,45.985,0.008,91.97-0.001,137.956c-0.002,8.941-2.33,11.302-11.149,11.303c-52.816,0.008-105.633,0.004-158.449,0.004
		c-1.953,0-3.906,0-6.114,0C364.256,585.035,364.256,592.63,364.256,600.926z M523.623,560.694c0-42.742,0-85.107,0-127.365
		c-69.374,0-138.396,0-207.369,0c0,42.634,0,84.882,0,127.365C385.412,560.694,454.316,560.694,523.623,560.694z M364.032,304.611
		c122.925,0,245.282,0,367.563,0c0.158-0.663,0.298-0.977,0.299-1.292c0.026-9.164,0.055-18.328,0.049-27.491
		c-0.009-12.924-5.994-18.859-19.009-18.859c-71.315-0.003-142.629-0.002-213.944,0.001c-39.323,0.002-78.646,0-117.969,0.021
		c-9.375,0.005-16.639,6.092-16.908,14.808C363.778,282.602,364.032,293.425,364.032,304.611z M396.201,632.54
		c77.471,0,154.477,0,231.499,0c0-5.312,0-10.241,0-15.341c-77.27,0-154.28,0-231.499,0
		C396.201,622.404,396.201,627.336,396.201,632.54z M396.221,664.56c77.469,0,154.474,0,231.498,0c0-5.29,0-10.223,0-15.387
		c-77.25,0-154.258,0-231.498,0C396.221,654.354,396.221,659.282,396.221,664.56z M347.623,664.695c0-16.156,0-31.851,0-47.533
		c-10.626,0-20.878,0-31.321,0c0,15.932,0,31.622,0,47.533C326.85,664.695,337.098,664.695,347.623,664.695z M364.335,617.159
		c0,16.104,0,31.787,0,47.349c5.394,0,10.439,0,15.405,0c0-15.977,0-31.545,0-47.349
		C374.574,617.159,369.653,617.159,364.335,617.159z M644.192,659.872c12.625-6.349,24.753-12.447,37.779-18.997
		c-13.285-6.627-25.373-12.658-37.779-18.847C644.192,634.942,644.192,647.025,644.192,659.872z"/>
	<path fill="#2bb1a8" d="M675.501,488.849c5.907,0,10.851,0,16.119,0c0,5.404,0,10.456,0,15.916c-4.986,0-9.923,0-15.636,0
		c0,7.126,0.016,13.877-0.004,20.628c-0.027,9.232-2.304,11.553-11.447,11.562c-19.662,0.019-39.324,0.015-58.986-0.009
		c-6.489-0.008-9.506-2.925-9.582-9.38c-0.086-7.308-0.02-14.617-0.02-22.501c-5.357,0-10.421,0-15.736,0c0-5.503,0-10.437,0-15.939
		c5.014,0,10.078,0,15.749,0c0-3.812,0.362-7.146-0.15-10.339c-0.262-1.636-1.833-3.336-3.244-4.472
		c-22.597-18.198-32.389-41.755-27.283-70.247c4.957-27.662,21.73-46.464,48.311-55.539c33.116-11.305,70.134,3.964,86.063,34.717
		c16.391,31.646,8.041,69.691-20.34,90.845C673.673,478.294,677.256,483.506,675.501,488.849z M659.953,488.826
		c0-3.851,0.327-7.346-0.068-10.758c-0.824-7.124,2.056-11.396,8.081-15.486c25.487-17.303,31.486-52.687,13.776-77.765
		c-18.016-25.511-52.996-31.492-78.293-13.386c-32.243,23.077-30.979,70.985,2.566,92.657c4.251,2.746,6.373,5.907,6.014,11.018
		c-0.311,4.429-0.065,8.897-0.065,13.506c5.591,0,10.635,0,15.994,0c0-14.289,0.094-28.255-0.125-42.216
		c-0.026-1.658-1.47-3.586-2.765-4.881c-6.209-6.21-12.594-12.246-18.18-17.634c4.076-4.552,7.457-8.328,11.564-12.914
		c5.857,6.308,11.486,12.37,17.963,19.345c6.226-6.604,11.986-12.714,17.678-18.752c4.018,3.861,7.596,7.299,11.633,11.178
		c-6.381,6.306-12.681,12.222-18.555,18.533c-1.698,1.825-2.97,4.757-3.068,7.235c-0.353,8.979-0.122,17.981-0.114,26.974
		c0.004,4.417,0.001,8.835,0.001,13.347C649.521,488.826,654.334,488.826,659.953,488.826z M659.547,520.746
		c0-5.59,0-10.632,0-15.542c-15.979,0-31.548,0-47.268,0c0,5.312,0,10.351,0,15.542
		C628.161,520.746,643.726,520.746,659.547,520.746z"/>
	<path fill="#FFFFFF" d="M539.747,377.277c0,5.32,0,10.252,0,15.44c-50.497,0-100.741,0-151.371,0c0-4.967,0-10.022,0-15.44
		C438.642,377.277,489.003,377.277,539.747,377.277z"/>
	<path fill="#FFFFFF" d="M420.208,360.631c0-5.282,0-10.216,0-15.425c39.802,0,79.383,0,119.372,0c0,4.948,0,10.006,0,15.425
		C500.015,360.631,460.312,360.631,420.208,360.631z"/>
	<path fill="#FFFFFF" d="M707.729,561.253c0,5.319,0,10.25,0,15.44c-39.824,0-79.398,0-119.383,0c0-4.974,0-10.026,0-15.44
		C627.949,561.253,667.641,561.253,707.729,561.253z"/>
	<path fill="#FFFFFF" d="M388.191,360.61c0-5.273,0-10.194,0-15.398c5.143,0,10.066,0,15.41,0c0,4.929,0,9.972,0,15.398
		C398.709,360.61,393.668,360.61,388.191,360.61z"/>
	<path fill="#FFFFFF" d="M571.584,576.764c-5.154,0-10.075,0-15.32,0c0-5.225,0-10.263,0-15.585c5.057,0,9.979,0,15.32,0
		C571.584,566.125,571.584,571.168,571.584,576.764z"/>
	<path fill="#2bb1a8" d="M411.42,539.913c-5.211-2.109-9.778-3.958-14.85-6.011c10.714-26.775,21.28-53.182,31.958-79.868
		c5.008,1.973,9.606,3.785,14.865,5.857C432.747,486.536,422.193,512.95,411.42,539.913z"/>
	<path fill="#2bb1a8" d="M383.186,466.547c3.302,4.411,6.348,8.48,9.567,12.779c-7.828,5.899-15.259,11.499-23.309,17.565
		c7.778,5.899,15.257,11.572,23.284,17.661c-3.134,4.203-6.163,8.265-9.554,12.812c-11.049-8.337-22.033-16.377-32.703-24.814
		c-3.711-2.934-3.588-8.533,0.162-11.465C361.233,482.799,372.105,474.861,383.186,466.547z"/>
	<path fill="#2bb1a8" d="M456.751,466.527c11.023,8.256,21.594,16.019,31.979,24.023c4.537,3.497,4.506,9.253-0.086,12.801
		c-10.371,8.013-20.934,15.776-31.833,23.951c-3.219-4.282-6.262-8.329-9.61-12.783c7.753-5.827,15.263-11.47,23.339-17.539
		c-7.848-5.951-15.322-11.617-23.279-17.65C450.393,475.103,453.411,471.032,456.751,466.527z"/>
	<path fill="#FFFFFF" d="M380.363,273.139c5.193,0,10.114,0,15.345,0c0,5.24,0,10.278,0,15.586c-5.096,0-10.018,0-15.345,0
		C380.363,283.739,380.363,278.697,380.363,273.139z"/>
	<path fill="#FFFFFF" d="M427.745,273.259c0,5.079,0,10.008,0,15.321c-4.995,0-10.044,0-15.429,0c0-4.933,0-9.976,0-15.321
		C417.413,273.259,422.457,273.259,427.745,273.259z"/>
	<path fill="#FFFFFF" d="M444.217,288.684c0-5.11,0-10.033,0-15.354c4.997,0,10.04,0,15.442,0c0,4.963,0,10,0,15.354
		C454.56,288.684,449.522,288.684,444.217,288.684z"/>
</g>
</svg>
