<?xml version="1.0" encoding="utf-8"?>
<!-- Generator: Adobe Illustrator 17.0.0, SVG Export Plug-In . SVG Version: 6.00 Build 0)  -->
<!DOCTYPE svg PUBLIC "-//W3C//DTD SVG 1.1//EN" "http://www.w3.org/Graphics/SVG/1.1/DTD/svg11.dtd">
<svg version="1.1" id="Layer_1" xmlns="http://www.w3.org/2000/svg" xmlns:xlink="http://www.w3.org/1999/xlink" x="0px" y="0px"
	 width="533.474px" height="476.54px" viewBox="0 0 533.474 476.54" enable-background="new 0 0 533.474 476.54"
	 xml:space="preserve">
<g>
	<path fill="#FFFFFF" d="M160.266,476.54c-20.673,0.001-36.399-9.102-46.74-27.056c-7.012-12.174-14.019-24.352-21.026-36.529
		c-27.278-47.407-55.484-96.427-83.551-144.431c-11.91-20.371-11.932-40.139-0.066-60.434
		c33.39-57.107,68.136-117.312,103.274-178.944c8.435-14.794,20.341-24.21,36.397-28.785L149.822,0h233.648l1.122,0.279
		c21.062,5.238,32.118,20.621,39.398,33.438c31.609,55.655,64.511,112.687,100.587,174.354
		c11.876,20.302,11.861,40.071-0.046,60.437c-28.948,49.512-58.034,100.072-86.164,148.968
		c-6.136,10.665-12.271,21.329-18.411,31.992c-10.341,17.961-26.067,27.068-46.739,27.068
		c-71.083-0.079-141.938-0.083-212.865,0.003H160.266z M152.515,18.871c-10.594,3.304-18.23,9.566-23.964,19.621
		C93.38,100.184,58.599,160.448,25.175,217.614c-8.457,14.465-8.438,26.841,0.066,41.384c28.1,48.061,56.323,97.11,83.617,144.544
		c7.005,12.175,14.011,24.35,21.021,36.522c6.918,12.011,16.574,17.604,30.388,17.604v9.436l0.063-9.436
		c70.942-0.088,141.888-0.082,212.832-0.003c13.867,0,23.522-5.597,30.441-17.613c6.137-10.661,12.271-21.324,18.406-31.987
		c28.146-48.924,57.25-99.513,86.231-149.081c8.499-14.537,8.513-26.913,0.048-41.384C472.172,155.862,439.23,98.762,407.582,43.037
		c-8.005-14.094-15.742-21.18-26.484-24.165H152.515z M194.53,366.013c-0.416,0-0.843-0.009-1.28-0.029
		c-3.325-0.149-6.959-0.219-11.438-0.219c-2.651,0-5.303,0.024-7.956,0.047c-2.708,0.024-5.416,0.047-8.124,0.047l-2.172-0.005
		c-7.464-0.039-12.627-2.427-15.348-7.096c-2.721-4.668-2.254-10.334,1.387-16.839l2.558-4.57
		c18.025-32.205,36.664-65.506,55.187-98.165c0.265-0.465,0.402-0.772,0.47-0.951c-0.066-0.169-0.194-0.453-0.43-0.869
		c-15.977-28.171-32.052-56.892-47.598-84.667l-9.835-17.566c-1.61-2.874-5.886-10.51-1.798-17.504
		c4.066-6.955,12.649-6.975,15.878-6.982l0.895-0.001c2.828,0,5.657,0.029,8.485,0.059c2.763,0.029,5.526,0.058,8.287,0.058
		c4.434,0,8.042-0.078,11.352-0.245c0.487-0.025,0.961-0.037,1.423-0.037c12.268,0,17.19,8.847,18.807,11.754
		c15.116,27.173,30.636,54.731,45.644,81.382l7.802,13.86l2.202-3.921c7.877-14.021,15.581-27.732,23.279-41.445
		c2.387-4.253,4.78-8.502,7.174-12.752c7.013-12.453,14.265-25.329,21.223-38.055c3.966-7.252,9.67-10.777,17.437-10.777
		c0.281,0,0.568,0.005,0.86,0.014c3.507,0.115,7.351,0.169,12.099,0.169c2.633,0,5.267-0.016,7.901-0.031
		c3.659-0.022,7.322-0.044,10.984-0.025c7.436,0.039,12.584,2.42,15.3,7.079c2.721,4.667,2.249,10.342-1.399,16.867l-6.463,11.554
		c-16.734,29.922-34.039,60.862-51.239,91.206c-0.242,0.425-0.37,0.71-0.437,0.88c0.069,0.177,0.205,0.48,0.464,0.938
		c14.756,25.995,29.61,52.494,43.975,78.12l13.137,23.413c0.686,1.194,1.465,2.548,2.153,4.13c2.241,5.15,2.021,10.446-0.605,14.529
		c-2.558,3.977-7.079,6.309-12.404,6.4c-4.469,0.076-9.335,0.111-15.315,0.111c-3.257,0-6.515-0.01-9.772-0.02
		c-3.238-0.01-6.477-0.02-9.714-0.02l-1.899,0.001c-9.164,0-12.874-6.913-14.459-9.865c-0.141-0.263-0.281-0.526-0.426-0.784
		c-7.685-13.697-15.366-27.399-23.047-41.1c-7.68-13.699-15.359-27.399-23.044-41.095c-2.628-4.683-5.267-9.36-7.984-14.168
		l-9.881,17.554c-14.418,25.604-29.326,52.081-43.828,78.196C208.728,362.273,202.686,366.013,194.53,366.013z M181.812,346.893
		c4.769,0,8.672,0.076,12.285,0.239c0.633,0.027,1.122-0.021,1.275-0.054c0.141-0.137,0.523-0.568,1.13-1.662
		c14.529-26.164,29.451-52.665,43.883-78.294l12.337-21.918c1.207-2.147,2.444-4.277,3.807-6.622l0.236-0.407
		c-0.423-0.707-0.788-1.33-1.141-1.959l-13.141-23.343c-15.02-26.672-30.551-54.252-45.693-81.468
		c-0.858-1.543-1.34-1.941-1.395-1.984c0.003,0.017-0.265-0.073-0.92-0.073c-0.153,0-0.31,0.005-0.471,0.013
		c-3.635,0.184-7.544,0.269-12.304,0.269c-2.827,0-5.655-0.029-8.484-0.059c-1.591-0.017-3.182-0.033-4.773-0.044l7.81,13.952
		c15.533,27.752,31.597,56.449,47.546,84.572c3.943,6.948,3.93,13.445-0.04,20.442c-18.497,32.611-37.122,65.889-55.133,98.07
		l-0.234,0.416c1.767-0.009,3.533-0.024,5.3-0.04C176.399,346.917,179.107,346.893,181.812,346.893z M337.796,346.967
		c3.181,0.001,6.364,0.01,9.546,0.02c3.239,0.01,6.477,0.02,9.714,0.02c2.928,0,5.579-0.009,8.044-0.026l-11.472-20.458
		c-14.353-25.604-29.194-52.081-43.925-78.032c-3.968-6.989-3.978-13.485-0.033-20.441c17.172-30.295,34.464-61.212,51.186-91.11
		l4.151-7.421c-1.997,0.005-3.995,0.017-5.991,0.029c-2.671,0.016-5.342,0.032-8.013,0.032c-4.96,0-9-0.057-12.72-0.18l-0.24-0.004
		c-0.115,0-0.212,0.003-0.291,0.007c-0.131,0.18-0.329,0.479-0.589,0.953c-7.015,12.83-14.296,25.758-21.337,38.261
		c-2.39,4.242-4.779,8.484-7.162,12.729c-7.699,13.716-15.403,27.429-23.282,41.452L276.73,238.2l3.852,6.818
		c3.642,6.443,7.116,12.588,10.57,18.743c7.686,13.699,15.368,27.401,23.048,41.102c7.68,13.699,15.359,27.399,23.044,41.095
		C337.432,346.291,337.614,346.629,337.796,346.967z"/>
	<path fill="#2bb1a8" d="M194.53,366.013c-0.417,0-0.842-0.009-1.281-0.029c-3.324-0.15-6.958-0.219-11.435-0.219
		c-2.653,0-5.304,0.024-7.958,0.047c-2.707,0.024-5.415,0.047-8.123,0.047l-2.172-0.005c-7.464-0.039-12.627-2.427-15.348-7.096
		c-2.721-4.668-2.254-10.334,1.387-16.839l2.551-4.557c18.027-32.209,36.668-65.515,55.194-98.178
		c0.265-0.465,0.402-0.772,0.471-0.951c-0.067-0.169-0.195-0.453-0.431-0.869c-15.98-28.179-32.061-56.907-47.612-84.69
		l-9.821-17.543c-1.61-2.874-5.886-10.51-1.798-17.504c4.066-6.955,12.649-6.975,15.878-6.982l0.894-0.001
		c2.828,0,5.658,0.029,8.487,0.059c2.763,0.029,5.526,0.058,8.288,0.058c4.433,0,8.041-0.078,11.351-0.245
		c0.487-0.025,0.962-0.037,1.423-0.037c12.268,0,17.19,8.847,18.807,11.754c15.114,27.168,30.63,54.721,45.636,81.368l7.81,13.874
		l2.183-3.885c7.884-14.033,15.593-27.756,23.299-41.481c2.387-4.253,4.78-8.502,7.174-12.751
		c7.013-12.453,14.265-25.33,21.223-38.056c3.966-7.252,9.67-10.777,17.437-10.777c0.282,0,0.568,0.005,0.86,0.014
		c3.507,0.115,7.352,0.169,12.099,0.169c2.634,0,5.268-0.016,7.903-0.031c3.662-0.022,7.322-0.043,10.983-0.025
		c7.436,0.039,12.584,2.42,15.3,7.079c2.721,4.667,2.249,10.342-1.399,16.867l-6.477,11.579
		c-16.73,29.913-34.029,60.845-51.225,91.18c-0.242,0.425-0.37,0.71-0.437,0.88c0.069,0.177,0.205,0.48,0.464,0.938
		c14.754,25.99,29.605,52.485,43.967,78.107l13.146,23.427c0.685,1.194,1.464,2.548,2.152,4.13
		c2.241,5.15,2.021,10.446-0.605,14.528c-2.558,3.977-7.079,6.31-12.404,6.4c-4.469,0.076-9.337,0.111-15.317,0.111
		c-3.257,0-6.516-0.01-9.774-0.02c-3.24-0.01-6.479-0.02-9.718-0.02l-1.891,0.001c-9.164,0.001-12.874-6.912-14.459-9.864
		c-0.141-0.263-0.281-0.526-0.426-0.784c-7.681-13.69-15.357-27.384-23.034-41.078c-7.684-13.707-15.369-27.414-23.057-41.118
		c-2.628-4.683-5.267-9.36-7.984-14.168l-9.886,17.562c-14.416,25.602-29.323,52.076-43.823,78.188
		C208.728,362.272,202.687,366.013,194.53,366.013z M181.814,346.893c4.767,0,8.671,0.076,12.284,0.239
		c0.638,0.027,1.122-0.023,1.275-0.054c0.139-0.137,0.522-0.567,1.13-1.662c14.527-26.161,29.449-52.659,43.879-78.286
		l12.342-21.926c1.207-2.146,2.443-4.275,3.804-6.618l0.238-0.411c-0.423-0.707-0.788-1.33-1.141-1.959l-13.149-23.358
		c-15.017-26.667-30.546-54.243-45.685-81.453c-0.858-1.543-1.34-1.941-1.395-1.984c0.003,0.017-0.265-0.073-0.92-0.073
		c-0.152,0-0.31,0.005-0.471,0.013c-3.635,0.184-7.544,0.269-12.303,0.269c-2.828,0-5.657-0.029-8.485-0.059
		c-1.591-0.017-3.182-0.033-4.773-0.044l7.798,13.928c15.538,27.76,31.605,56.465,47.559,84.595
		c3.943,6.948,3.93,13.445-0.04,20.443c-18.499,32.616-37.127,65.898-55.141,98.084l-0.226,0.403
		c1.767-0.009,3.533-0.024,5.298-0.04C176.399,346.917,179.107,346.893,181.814,346.893z M337.795,346.967
		c3.181,0.001,6.361,0.01,9.543,0.02c3.239,0.01,6.478,0.02,9.717,0.02c2.928,0,5.582-0.009,8.047-0.026l-11.479-20.471
		c-14.351-25.6-29.191-52.073-43.918-78.019c-3.968-6.989-3.978-13.485-0.033-20.441c17.168-30.287,34.454-61.194,51.171-91.085
		l4.166-7.447c-1.996,0.005-3.993,0.017-5.989,0.029c-2.671,0.016-5.343,0.032-8.014,0.032c-4.959,0-9-0.057-12.72-0.18l-0.24-0.004
		c-0.115,0-0.212,0.003-0.29,0.007c-0.132,0.18-0.331,0.479-0.589,0.953c-7.016,12.83-14.298,25.758-21.34,38.261
		c-2.389,4.242-4.778,8.484-7.161,12.729c-7.706,13.727-15.416,27.452-23.301,41.487L276.73,238.2l3.863,6.838
		c3.639,6.435,7.108,12.573,10.559,18.722c7.691,13.707,15.376,27.416,23.061,41.125c7.676,13.692,15.351,27.384,23.032,41.073
		C337.432,346.291,337.614,346.629,337.795,346.967z"/>
</g>
</svg>
